<?xml version="1.0" encoding="utf-8"?>
<!-- Generator: Adobe Illustrator 16.0.0, SVG Export Plug-In . SVG Version: 6.00 Build 0)  -->
<!DOCTYPE svg PUBLIC "-//W3C//DTD SVG 1.1//EN" "http://www.w3.org/Graphics/SVG/1.1/DTD/svg11.dtd">
<svg version="1.1" id="Layer_1" xmlns="http://www.w3.org/2000/svg" xmlns:xlink="http://www.w3.org/1999/xlink" x="0px" y="0px"
	 width="800px" height="1280px" viewBox="0 0 800 1280" enable-background="new 0 0 800 1280" xml:space="preserve">
<path fill="#FFFFFF" d="M417.5,240.667c43.666-0.667,86.999-0.333,130.333-0.667c2.666,51,21,103,58.333,139
	c37.334,37,90,54,141.333,59.667V573c-48-1.666-96.333-11.666-140-32.333c-19-8.667-36.666-19.667-54-31
	c-0.333,97.333,0.334,194.667-0.666,291.667c-2.667,46.666-18,93-45,131.333c-43.667,64-119.334,105.667-197,107
	c-47.667,2.667-95.333-10.333-136-34.333C107.5,965.667,60.166,893,53.166,815c-0.666-16.666-1-33.333-0.333-49.666
	c6-63.334,37.333-124,86-165.334c55.333-48,132.667-71,205-57.333c0.666,49.333-1.334,98.667-1.334,148
	C309.499,680,270.833,683,241.833,703c-21,13.667-37,34.667-45.333,58.334c-7,17-5,35.666-4.667,53.666
	c8,54.667,60.667,100.667,116.666,95.667c37.334-0.333,73-22,92.334-53.667c6.333-11,13.333-22.333,13.666-35.333
	c3.334-59.667,2-119,2.334-178.667C417.166,508.667,416.499,374.667,417.5,240.667L417.5,240.667z"/>
</svg>
