<?xml version="1.0" encoding="utf-8"?>
<!-- Generator: Adobe Illustrator 16.0.0, SVG Export Plug-In . SVG Version: 6.00 Build 0)  -->
<!DOCTYPE svg PUBLIC "-//W3C//DTD SVG 1.1//EN" "http://www.w3.org/Graphics/SVG/1.1/DTD/svg11.dtd">
<svg version="1.1" id="Layer_1" xmlns="http://www.w3.org/2000/svg" xmlns:xlink="http://www.w3.org/1999/xlink" x="0px" y="0px"
	 width="800px" height="1280px" viewBox="0 0 800 1280" enable-background="new 0 0 800 1280" xml:space="preserve">
<path fill="#FFFFFF" d="M773.333,503.334C773.333,330,660,280,660,280c-56.667-26.666-156.667-40-260-40
	c-103.334,0-200,13.334-256.667,36.667c0,0-113.333,50-113.333,223.333v136.667C33.333,810,60,976.667,216.666,1020
	C290,1040,350,1043.334,400,1040c90-6.666,140-33.333,140-33.333L536.666,940c0,0-63.333,20-136.666,16.667
	C326.666,953.334,253.333,950,240,860v-23.333c0,0,69.999,16.667,160,20c53.333,3.333,106.666-3.333,159.999-10
	c100-13.333,186.667-73.333,200-130C773.333,630,773.333,503.334,773.333,503.334L773.333,503.334z M640,726.667h-83.334V523.334
	C556.666,480,540,460,503.333,460c-40,0-60,26.667-60,76.667v110H360V533.334c0-50-20.001-76.667-60-76.667
	c-36.667,0-53.334,23.333-53.334,63.333v203.334H160V516.667c0-43.333,10-76.667,33.333-103.333
	c23.333-26.667,53.333-36.667,90-36.667c43.333,0,73.333,16.667,96.666,50L400,460l20-33.333c20-33.333,53.333-50,96.666-50
	c36.667,0,66.667,13.333,90,36.667C630,440,640,473.334,640,516.667V726.667z"/>
</svg>
