<?xml version="1.0" encoding="utf-8"?>
<!-- Generator: Adobe Illustrator 16.0.0, SVG Export Plug-In . SVG Version: 6.00 Build 0)  -->
<!DOCTYPE svg PUBLIC "-//W3C//DTD SVG 1.1//EN" "http://www.w3.org/Graphics/SVG/1.1/DTD/svg11.dtd">
<svg version="1.1" id="Layer_1" xmlns="http://www.w3.org/2000/svg" xmlns:xlink="http://www.w3.org/1999/xlink" x="0px" y="0px"
	 width="16px" height="16px" viewBox="0 0 16 16" enable-background="new 0 0 16 16" xml:space="preserve">
<path fill="#FFFFFF" d="M15.95,4.71c-0.04-0.85-0.171-1.43-0.37-1.94c-0.2-0.53-0.48-0.97-0.92-1.42c-0.4-0.41-0.881-0.72-1.42-0.92
	c-0.51-0.2-1.09-0.33-1.94-0.37c-0.86-0.04-1.13-0.05-3.3-0.05s-2.45,0-3.3,0.04C3.85,0.09,3.27,0.23,2.76,0.42
	c-0.53,0.2-1.02,0.52-1.42,0.92c-0.41,0.4-0.72,0.88-0.92,1.42C0.22,3.27,0.09,3.85,0.05,4.7C0.01,5.56,0,5.83,0,8
	s0.01,2.439,0.05,3.301c0.04,0.85,0.17,1.43,0.37,1.939c0.2,0.529,0.52,1.02,0.92,1.42c0.4,0.41,0.88,0.72,1.42,0.92
	c0.51,0.199,1.09,0.33,1.94,0.369C5.55,15.99,5.83,16,8,16s2.45-0.01,3.3-0.051c0.851-0.039,1.431-0.17,1.94-0.369
	c0.529-0.2,1.02-0.52,1.42-0.92c0.41-0.4,0.72-0.881,0.92-1.42c0.199-0.51,0.33-1.09,0.37-1.939C15.99,10.449,16,10.18,16,8
	C16,5.82,15.99,5.56,15.95,4.71z M14.51,11.23c-0.039,0.779-0.17,1.199-0.279,1.479c-0.15,0.37-0.32,0.64-0.601,0.92
	s-0.55,0.45-0.92,0.601c-0.28,0.109-0.71,0.24-1.479,0.279c-0.84,0.041-1.101,0.051-3.23,0.051c-2.14,0-2.39-0.01-3.23-0.051
	c-0.78-0.039-1.2-0.17-1.48-0.279c-0.37-0.15-0.64-0.32-0.92-0.601c-0.28-0.28-0.45-0.55-0.6-0.92C1.66,12.43,1.53,12,1.49,11.23
	c-0.04-0.84-0.05-1.09-0.05-3.23c0-2.14,0.01-2.39,0.05-3.23c0.04-0.78,0.17-1.2,0.28-1.48c0.15-0.37,0.32-0.64,0.6-0.92
	c0.28-0.28,0.55-0.45,0.92-0.6C3.57,1.66,4,1.53,4.77,1.49C5.61,1.45,5.86,1.45,8,1.45c2.141,0,2.391,0.01,3.23,0.05
	c0.779,0.04,1.199,0.17,1.479,0.28c0.351,0.13,0.66,0.33,0.92,0.6C13.9,2.64,14.1,2.95,14.23,3.3c0.109,0.28,0.24,0.71,0.279,1.479
	c0.04,0.84,0.051,1.1,0.051,3.23C14.55,10.141,14.55,10.391,14.51,11.23z"/>
<path fill="#FFFFFF" d="M8,3.9C5.78,3.93,3.99,5.72,3.95,7.94C3.92,10.21,5.73,12.07,8,12.109h0.13
	c2.271-0.039,4.08-1.899,4.04-4.169S10.26,3.86,8,3.9z M8,10.67c-1.43-0.029-2.59-1.18-2.61-2.61C5.35,6.58,6.52,5.37,8,5.34h0.1
	c1.47,0.03,2.64,1.25,2.61,2.72C10.68,9.529,9.471,10.699,8,10.67z"/>
<circle fill="#FFFFFF" cx="12.27" cy="3.73" r="0.96"/>
</svg>
