<?xml version="1.0" encoding="utf-8"?>
<!-- Generator: Adobe Illustrator 16.0.0, SVG Export Plug-In . SVG Version: 6.00 Build 0)  -->
<!DOCTYPE svg PUBLIC "-//W3C//DTD SVG 1.1//EN" "http://www.w3.org/Graphics/SVG/1.1/DTD/svg11.dtd">
<svg version="1.1" id="Layer_1" xmlns="http://www.w3.org/2000/svg" xmlns:xlink="http://www.w3.org/1999/xlink" x="0px" y="0px"
	 width="800px" height="1280px" viewBox="0 0 800 1280" enable-background="new 0 0 800 1280" xml:space="preserve">
<path fill="#FFFFFF" d="M400,240C180,240,0,420,0,640s180,400,400,400s400-180,400-400S622,240,400,240z M584.033,818
	c-8,11.967-22,16-34.033,8c-94-58-212.001-70.033-352.033-38.033C184.033,792.034,172,782,168,770c-4-14.033,6-26,18-30
	c151.999-34.033,284-20,388,44C588,790,589.966,805.967,584.033,818L584.033,818z M632.033,708C622,722,604,728,589.966,718
	C482,652,318,632,192,672c-15.967,4-34-4-38-20s4-34.033,20-38.033C320,570,500,592.034,623.999,668
	C636.033,674.034,642,694,632.033,708L632.033,708z M636.033,596C508,520,294,512,172,550.034C152,556,132,544,126,526
	c-6-20.033,6-40,24-46.033c142-42,376-34,524.033,54.033C692,544,698,568,688,586C678.033,600.034,654,605.967,636.033,596
	L636.033,596z"/>
</svg>
