<?xml version="1.0" encoding="utf-8"?>
<!-- Generator: Adobe Illustrator 16.0.0, SVG Export Plug-In . SVG Version: 6.00 Build 0)  -->
<!DOCTYPE svg PUBLIC "-//W3C//DTD SVG 1.1//EN" "http://www.w3.org/Graphics/SVG/1.1/DTD/svg11.dtd">
<svg version="1.1" id="Layer_1" xmlns="http://www.w3.org/2000/svg" xmlns:xlink="http://www.w3.org/1999/xlink" x="0px" y="0px"
	 width="16px" height="16px" viewBox="0 0 16 16" enable-background="new 0 0 16 16" xml:space="preserve">
<path fill="#FFFFFF" d="M15.666,3.749C16,4.997,16,7.599,16,7.599s0,2.604-0.334,3.852c-0.186,0.689-0.725,1.229-1.415,1.414
	C13.003,13.199,8,13.199,8,13.199s-5.003,0-6.251-0.334c-0.69-0.186-1.23-0.725-1.415-1.416C0,10.203,0,7.6,0,7.6
	s0-2.603,0.334-3.851C0.52,3.059,1.06,2.519,1.75,2.334C2.997,2,7.999,2,7.999,2s5.004,0,6.252,0.334
	C14.939,2.518,15.48,3.06,15.666,3.749z M6.4,9.999L10.557,7.6L6.4,5.2V9.999L6.4,9.999z"/>
</svg>
