<?xml version="1.0" encoding="utf-8"?>
<!-- Generator: Adobe Illustrator 16.0.0, SVG Export Plug-In . SVG Version: 6.00 Build 0)  -->
<!DOCTYPE svg PUBLIC "-//W3C//DTD SVG 1.1//EN" "http://www.w3.org/Graphics/SVG/1.1/DTD/svg11.dtd">
<svg version="1.1" id="Layer_1" xmlns="http://www.w3.org/2000/svg" xmlns:xlink="http://www.w3.org/1999/xlink" x="0px" y="0px"
	 width="800px" height="1280px" viewBox="0 0 800 1280" enable-background="new 0 0 800 1280" xml:space="preserve">
<path fill="#FFFFFF" d="M681.567,921.733H563.1V736.1c0-44.267-0.9-101.233-61.733-101.233c-61.767,0-71.2,48.167-71.2,97.967
	v188.899H311.699V540h113.8v52.034h1.534c15.899-30,54.566-61.667,112.333-61.667c120.033,0,142.233,79,142.233,181.833v209.533
	H681.567z M177.9,487.767c-37.96,0.018-68.748-30.74-68.767-68.7c0-0.045,0-0.089,0-0.134c0.019-37.997,30.836-68.785,68.834-68.767
	c37.997,0.019,68.784,30.836,68.767,68.833C246.715,456.998,215.897,487.785,177.9,487.767z M237.3,921.733H118.5V540h118.8V921.733
	z M740.833,240h-681.8C26.4,240,0,265.8,0,297.634v684.733C0,1014.233,26.4,1040,59.033,1040h681.699
	c32.601,0,59.268-25.767,59.268-57.633V297.634C800,265.8,773.333,240,740.733,240H740.833z"/>
</svg>
