<?xml version="1.0" encoding="utf-8"?>
<!-- Generator: Adobe Illustrator 16.0.0, SVG Export Plug-In . SVG Version: 6.00 Build 0)  -->
<!DOCTYPE svg PUBLIC "-//W3C//DTD SVG 1.1//EN" "http://www.w3.org/Graphics/SVG/1.1/DTD/svg11.dtd">
<svg version="1.1" id="Layer_1" xmlns="http://www.w3.org/2000/svg" xmlns:xlink="http://www.w3.org/1999/xlink" x="0px" y="0px"
	 width="16px" height="16px" viewBox="0 0 16 16" enable-background="new 0 0 16 16" xml:space="preserve">
<path fill="#FFFFFF" d="M5.032,14.5c6.036,0,9.34-5.002,9.34-9.34c0-0.142,0-0.283-0.011-0.424c0.643-0.464,1.197-1.04,1.639-1.699
	c-0.6,0.266-1.234,0.44-1.885,0.517c0.686-0.411,1.197-1.056,1.443-1.816c-0.645,0.383-1.35,0.652-2.086,0.797
	c-1.244-1.321-3.324-1.382-4.645-0.137C7.978,3.199,7.617,4.39,7.88,5.528C5.241,5.396,2.781,4.15,1.114,2.1
	C0.243,3.6,0.688,5.518,2.13,6.481C1.607,6.465,1.097,6.325,0.64,6.07v0.041c0,1.563,1.102,2.91,2.634,3.219
	C2.79,9.462,2.284,9.48,1.791,9.387c0.43,1.337,1.663,2.253,3.067,2.279C3.483,12.746,1.735,13.234,0,13.025
	c1.501,0.963,3.248,1.475,5.032,1.472"/>
</svg>
