<?xml version="1.0" encoding="utf-8"?>
<!-- Generator: Adobe Illustrator 16.0.0, SVG Export Plug-In . SVG Version: 6.00 Build 0)  -->
<!DOCTYPE svg PUBLIC "-//W3C//DTD SVG 1.1//EN" "http://www.w3.org/Graphics/SVG/1.1/DTD/svg11.dtd">
<svg version="1.1" id="Layer_1" xmlns="http://www.w3.org/2000/svg" xmlns:xlink="http://www.w3.org/1999/xlink" x="0px" y="0px"
	 width="56px" height="56px" viewBox="0 0 56 56" enable-background="new 0 0 56 56" xml:space="preserve">
<path fill="#15141A" d="M8,0h40c4.418,0,8,3.582,8,8v40c0,4.418-3.582,8-8,8H8c-4.418,0-8-3.582-8-8V8C0,3.582,3.582,0,8,0z"/>
<g>
	<path fill="#ED3966" d="M22.42,12.537l-9.567,30.882H8.919l9.569-30.887L22.42,12.537z M25.908,12.537v30.882h-3.48V12.537H25.908z
		 M39.439,12.537l-9.567,30.882h-3.937l9.567-30.887L39.439,12.537z"/>
	<path fill="#ED3966" d="M42.919,12.537v30.882h-3.479V12.537H42.919z"/>
</g>
</svg>
