<?xml version="1.0" encoding="utf-8"?>
<!-- Generator: Adobe Illustrator 16.0.0, SVG Export Plug-In . SVG Version: 6.00 Build 0)  -->
<!DOCTYPE svg PUBLIC "-//W3C//DTD SVG 1.1//EN" "http://www.w3.org/Graphics/SVG/1.1/DTD/svg11.dtd">
<svg version="1.1" id="Layer_1" xmlns="http://www.w3.org/2000/svg" xmlns:xlink="http://www.w3.org/1999/xlink" x="0px" y="0px"
	 width="32px" height="32px" viewBox="0 0 32 32" enable-background="new 0 0 32 32" xml:space="preserve">
<linearGradient id="SVGID_1_" gradientUnits="userSpaceOnUse" x1="-81.8608" y1="1054.4053" x2="-81.8608" y2="1030.8999" gradientTransform="matrix(1 0 0 1 102.3999 -1026.9004)">
	<stop  offset="0" style="stop-color:#3A8EE6"/>
	<stop  offset="0.2359" style="stop-color:#5C79F0"/>
	<stop  offset="0.6293" style="stop-color:#9059FF"/>
	<stop  offset="1" style="stop-color:#C139E6"/>
</linearGradient>
<path fill="url(#SVGID_1_)" d="M28.8,6.5C27.3,4.9,25.3,4,23.1,4H23c-2.2,0-4.2,0.8-5.7,2.3L10.9,12.7c-0.5,0.5-0.8,1.2-0.8,1.9
	s0.3,1.4,0.8,1.9l1.2,1.199c0.5,0.5,1.2,0.801,1.9,0.801s1.4-0.301,1.9-0.801L12.8,14.6l6.4-6.4c1-1,2.3-1.5,3.7-1.5H23
	c1.4,0,2.8,0.601,3.7,1.601c2,2.1,1.899,5.399-0.2,7.5L17.4,25c-0.801,0.801-2.101,0.801-2.8,0l1.5,1.5l0.2,0.199
	c0.9,0.9,2.3,0.9,3.2,0.201l9-9.1C31.7,14.7,31.8,9.6,28.8,6.5z"/>
<linearGradient id="SVGID_2_" gradientUnits="userSpaceOnUse" x1="-73.8467" y1="1048.6006" x2="-87.8127" y2="1048.6006" gradientTransform="matrix(1 0 0 1 102.3999 -1026.9004)">
	<stop  offset="0.136" style="stop-color:#6A2BEA;stop-opacity:0"/>
	<stop  offset="0.2995" style="stop-color:#662CE6;stop-opacity:0.0946"/>
	<stop  offset="0.4689" style="stop-color:#592FDB;stop-opacity:0.1926"/>
	<stop  offset="0.641" style="stop-color:#4534C9;stop-opacity:0.2923"/>
	<stop  offset="0.815" style="stop-color:#283BAF;stop-opacity:0.393"/>
	<stop  offset="0.989" style="stop-color:#03448D;stop-opacity:0.4936"/>
	<stop  offset="1" style="stop-color:#00458B;stop-opacity:0.5"/>
</linearGradient>
<path fill="url(#SVGID_2_)" d="M26.6,15.9l-9.1,9.2c-0.8,0.801-2.1,0.801-2.8,0l1.5,1.5l0.2,0.201c0.9,0.898,2.3,0.898,3.2,0.199
	l9-9.1L26.6,15.9z"/>
<linearGradient id="SVGID_3_" gradientUnits="userSpaceOnUse" x1="-85.6465" y1="1034.1514" x2="-95.2908" y2="1050.856" gradientTransform="matrix(1 0 0 1 102.3999 -1026.9004)">
	<stop  offset="0" style="stop-color:#FF980E"/>
	<stop  offset="0.2725" style="stop-color:#FF851B"/>
	<stop  offset="0.558" style="stop-color:#FF7F1F"/>
	<stop  offset="0.7654" style="stop-color:#FF3750"/>
	<stop  offset="0.8991" style="stop-color:#F92261"/>
	<stop  offset="1" style="stop-color:#F5156C"/>
</linearGradient>
<path fill="url(#SVGID_3_)" d="M16,17.801c-0.5,0.5-1.2,0.799-2,0.799c-0.7,0-1.4-0.299-1.9-0.799l1.9,1.898
	c0.5,0.5,1.2,0.801,1.9,0.801s1.4-0.301,1.9-0.801l3.101-3.1c1.1-1.1,1.1-2.799,0-3.9L14.5,6.3C13.1,4.8,11.1,4,9,4H8.9
	C6.7,4,4.7,4.9,3.2,6.5c-3,3.1-2.9,8.3,0.3,11.4l8.9,8.9c2,2,5.1,2,7.2,0.199c-0.899,0.801-2.3,0.699-3.2-0.199l-2-2L5.5,15.9
	c-2.1-2.1-2.2-5.5-0.2-7.5c1-1,2.3-1.6,3.7-1.6h0.1c1.4,0,2.7,0.5,3.7,1.5l6.4,6.399L16,17.801z"/>
<linearGradient id="SVGID_4_" gradientUnits="userSpaceOnUse" x1="-85.6465" y1="1034.1514" x2="-95.2908" y2="1050.856" gradientTransform="matrix(1 0 0 1 102.3999 -1026.9004)">
	<stop  offset="0" style="stop-color:#FFF261;stop-opacity:0.8"/>
	<stop  offset="0.06" style="stop-color:#FFF261;stop-opacity:0.68"/>
	<stop  offset="0.19" style="stop-color:#FFF261;stop-opacity:0.48"/>
	<stop  offset="0.31" style="stop-color:#FFF261;stop-opacity:0.31"/>
	<stop  offset="0.42" style="stop-color:#FFF261;stop-opacity:0.17"/>
	<stop  offset="0.53" style="stop-color:#FFF261;stop-opacity:0.08"/>
	<stop  offset="0.63" style="stop-color:#FFF261;stop-opacity:0.02"/>
	<stop  offset="0.72" style="stop-color:#FFF261;stop-opacity:0"/>
</linearGradient>
<path fill="url(#SVGID_4_)" d="M16,17.801c-0.5,0.5-1.2,0.799-2,0.799c-0.7,0-1.4-0.299-1.9-0.799l1.9,1.898
	c0.5,0.5,1.2,0.801,1.9,0.801s1.4-0.301,1.9-0.801l3.101-3.1c1.1-1.1,1.1-2.799,0-3.9L14.5,6.3C13.1,4.8,11.1,4,9,4H8.9
	C6.7,4,4.7,4.9,3.2,6.5c-3,3.1-2.9,8.3,0.3,11.4l8.9,8.9c2,2,5.1,2,7.2,0.199c-0.899,0.801-2.3,0.699-3.2-0.199l-2-2L5.5,15.9
	c-2.1-2.1-2.2-5.5-0.2-7.5c1-1,2.3-1.6,3.7-1.6h0.1c1.4,0,2.7,0.5,3.7,1.5l6.4,6.399L16,17.801z"/>
<linearGradient id="SVGID_5_" gradientUnits="userSpaceOnUse" x1="-87.7495" y1="1045.5625" x2="-87.7495" y2="1033.2523" gradientTransform="matrix(1 0 0 1 102.3999 -1026.9004)">
	<stop  offset="0" style="stop-color:#6E008B;stop-opacity:0.5"/>
	<stop  offset="0.5" style="stop-color:#C846CB;stop-opacity:0"/>
</linearGradient>
<path fill="url(#SVGID_5_)" d="M17.3,6.3L10.9,12.7c-0.5,0.5-0.8,1.2-0.8,1.9s0.3,1.4,0.8,1.9l1.2,1.199
	c0.5,0.5,1.2,0.801,1.9,0.801s1.4-0.301,1.9-0.801L12.8,14.6l6.4-6.4L17.3,6.3z"/>
</svg>
