<?xml version="1.0" encoding="utf-8"?>
<!-- Generator: Adobe Illustrator 16.0.0, SVG Export Plug-In . SVG Version: 6.00 Build 0)  -->
<!DOCTYPE svg PUBLIC "-//W3C//DTD SVG 1.1//EN" "http://www.w3.org/Graphics/SVG/1.1/DTD/svg11.dtd">
<svg version="1.1" id="Layer_1" xmlns="http://www.w3.org/2000/svg" xmlns:xlink="http://www.w3.org/1999/xlink" x="0px" y="0px"
	 width="32px" height="32px" viewBox="0 0 32 32" enable-background="new 0 0 32 32" xml:space="preserve">
<g>
	<defs>
		<rect id="SVGID_1_" width="32" height="32"/>
	</defs>
	<clipPath id="SVGID_2_">
		<use xlink:href="#SVGID_1_"  overflow="visible"/>
	</clipPath>
	<g clip-path="url(#SVGID_2_)">
		
			<linearGradient id="SVGID_3_" gradientUnits="userSpaceOnUse" x1="-92.9199" y1="252.2021" x2="-81.2408" y2="210.9897" gradientTransform="matrix(1 0 0 -1 102.3999 252.0996)">
			<stop  offset="0" style="stop-color:#6AE1D9"/>
			<stop  offset="1" style="stop-color:#9898FF"/>
		</linearGradient>
		<path fill="url(#SVGID_3_)" d="M0,8.965v13.94c0,4.399,3.582,7.966,8,7.966c2.828,0,5.313-1.461,6.736-3.666
			c0.719-1.313,1.628-1.313,2.528,0c1.424,2.205,3.908,3.666,6.736,3.666c4.418,0,8-3.566,8-7.966s-3.582-7.965-8-7.965
			c-2.506,0-4.742,1.146-6.209,2.941c-0.537,0.659-1.791,1.223-1.836-0.498c0-1.658,0.042-7.943,0.045-8.392
			c0-0.019,0-0.035,0-0.053C15.985,4.551,12.409,1,8,1C3.582,1,0,4.566,0,8.965z"/>
	</g>
</g>
</svg>
