<?xml version="1.0" encoding="utf-8"?>
<!-- Generator: Adobe Illustrator 16.0.0, SVG Export Plug-In . SVG Version: 6.00 Build 0)  -->
<!DOCTYPE svg PUBLIC "-//W3C//DTD SVG 1.1//EN" "http://www.w3.org/Graphics/SVG/1.1/DTD/svg11.dtd">
<svg version="1.1" id="Layer_1" xmlns="http://www.w3.org/2000/svg" xmlns:xlink="http://www.w3.org/1999/xlink" x="0px" y="0px"
	 width="80px" height="80px" viewBox="0 0 80 80" enable-background="new 0 0 80 80" xml:space="preserve">
<path fill="#EF4154" d="M72.577,0H7.73C3.5,0,0,3.27,0,7.462v24C0,53.23,18,71.307,40.154,71.307C62.154,71.309,80,53.23,80,31.46
	v-24C80,3.232,76.654,0,72.577,0z M62.848,29.77l-19.08,17.96c-1,1.115-2.5,1.578-3.654,1.578c-1.423,0-2.807-0.424-3.923-1.578
	L17.423,29.769c-2-2.077-2.23-5.615,0-7.846c2.077-2,5.615-2.23,7.73,0l15,14.423l15.308-14.423c2-2.23,5.5-2,7.424,0
	c1.961,2.192,1.961,5.73-0.039,7.846L62.848,29.77z"/>
<path fill="#FFFFFF" d="M62.846,29.77L43.77,47.73c-1,1.115-2.5,1.578-3.653,1.578c-1.423,0-2.807-0.424-3.923-1.578l-18.77-17.961
	c-2-2.077-2.23-5.615,0-7.846c2.077-2,5.615-2.23,7.73,0l15,14.423l15.308-14.423c2-2.23,5.5-2,7.424,0
	C64.846,24.115,64.846,27.653,62.846,29.77L62.846,29.77z"/>
</svg>
