<?xml version="1.0" encoding="utf-8"?>
<!-- Generator: Adobe Illustrator 16.0.0, SVG Export Plug-In . SVG Version: 6.00 Build 0)  -->
<!DOCTYPE svg PUBLIC "-//W3C//DTD SVG 1.1//EN" "http://www.w3.org/Graphics/SVG/1.1/DTD/svg11.dtd">
<svg version="1.1" id="Layer_1" xmlns="http://www.w3.org/2000/svg" xmlns:xlink="http://www.w3.org/1999/xlink" x="0px" y="0px"
	 width="80px" height="80px" viewBox="0 0 80 80" enable-background="new 0 0 80 80" xml:space="preserve">
<path d="M71.788,17.453L43.309,0.856C42.309,0.294,41.189,0,40.05,0c-1.142,0.001-2.264,0.295-3.259,0.856L8.21,17.453
	c-1.039,0.609-1.898,1.482-2.49,2.532c-0.601,1.063-0.918,2.263-0.92,3.484v33.087c-0.01,1.225,0.301,2.43,0.903,3.496
	c0.593,1.051,1.459,1.922,2.507,2.521l28.48,16.492C37.682,79.686,38.83,80.01,40,80c1.168-0.004,2.312-0.327,3.309-0.934
	l28.48-16.492c1.039-0.609,1.898-1.482,2.49-2.532c0.598-1.058,0.916-2.261,0.918-3.485V23.47c0.031-1.228-0.271-2.441-0.875-3.51
	C73.728,18.905,72.85,18.037,71.788,17.453L71.788,17.453z"/>
<linearGradient id="SVGID_1_" gradientUnits="userSpaceOnUse" x1="-96.7998" y1="259.2656" x2="-27.9991" y2="259.2656" gradientTransform="matrix(1 0 0 -1 102.3999 300.0996)">
	<stop  offset="0" style="stop-color:#9059FF"/>
	<stop  offset="1" style="stop-color:#F770FF"/>
</linearGradient>
<path fill="url(#SVGID_1_)" d="M20.613,49.583l-1.678,1.042c-0.3,0.175-0.564,0.413-0.776,0.697
	c-0.213,0.283-0.37,0.609-0.462,0.959c-0.184,0.705-0.094,1.453,0.252,2.094c0.22,0.436,0.547,0.8,0.946,1.057
	c0.399,0.256,0.856,0.396,1.323,0.401c0.445-0.004,0.882-0.11,1.283-0.312l1.678-1.043c0.3-0.174,0.564-0.412,0.777-0.697
	c0.212-0.283,0.369-0.609,0.461-0.959c0.184-0.705,0.095-1.453-0.251-2.094c-0.15-0.328-0.366-0.621-0.633-0.863
	c-0.262-0.238-0.571-0.417-0.907-0.526C21.952,49.12,21.215,49.209,20.613,49.583z M30.877,43.438l-3.455,2.084
	c-0.303,0.178-0.567,0.414-0.777,0.697c-0.213,0.287-0.37,0.613-0.46,0.959c-0.185,0.705-0.096,1.453,0.25,2.094
	c0.22,0.435,0.548,0.799,0.947,1.056c0.399,0.256,0.856,0.396,1.323,0.401c0.446-0.004,0.885-0.111,1.283-0.312l3.454-2.084
	c0.3-0.175,0.565-0.412,0.777-0.696c0.213-0.285,0.37-0.611,0.461-0.961c0.185-0.704,0.095-1.451-0.25-2.093
	c-0.151-0.328-0.366-0.622-0.634-0.864c-0.262-0.236-0.571-0.416-0.907-0.525C32.215,42.975,31.479,43.064,30.877,43.438
	L30.877,43.438z M44.791,38.344c-0.137-0.293-0.33-0.557-0.57-0.774c-0.234-0.213-0.51-0.375-0.811-0.476V16.146
	c0.002-0.369-0.066-0.734-0.2-1.078c-0.132-0.339-0.328-0.649-0.578-0.914c-0.245-0.259-0.539-0.467-0.866-0.61
	c-0.321-0.14-0.669-0.211-1.02-0.21c-0.347,0.001-0.689,0.075-1.005,0.218c-0.32,0.145-0.607,0.354-0.843,0.614
	c-0.24,0.263-0.426,0.573-0.55,0.913c-0.124,0.341-0.181,0.704-0.169,1.067v21.042c-0.298,0.1-0.574,0.261-0.811,0.476
	c-0.239,0.218-0.433,0.481-0.57,0.774c-0.376,0.747-0.413,1.62-0.099,2.396c-0.314,0.775-0.278,1.648,0.099,2.395
	c0.139,0.297,0.333,0.56,0.57,0.774c0.234,0.213,0.511,0.375,0.811,0.476v21.043c0,0.746,0.281,1.461,0.78,1.988
	c0.5,0.527,1.178,0.823,1.885,0.823c0.706,0,1.385-0.296,1.885-0.823s0.779-1.242,0.779-1.99V44.376
	c0.299-0.101,0.574-0.263,0.811-0.478c0.238-0.215,0.433-0.477,0.572-0.772c0.375-0.747,0.412-1.62,0.098-2.396
	C45.217,39.938,45.146,39.089,44.791,38.344L44.791,38.344z M51.512,31.146l-3.453,2.083c-0.304,0.178-0.568,0.415-0.777,0.697
	c-0.213,0.285-0.37,0.61-0.461,0.96c-0.186,0.704-0.096,1.452,0.25,2.093c0.221,0.435,0.548,0.8,0.947,1.056
	c0.399,0.257,0.855,0.396,1.323,0.403c0.444-0.004,0.882-0.111,1.283-0.313l3.454-2.083c0.3-0.176,0.564-0.413,0.777-0.697
	c0.211-0.285,0.369-0.611,0.459-0.96c0.186-0.704,0.096-1.452-0.25-2.093c-0.15-0.328-0.365-0.623-0.633-0.865
	c-0.262-0.237-0.57-0.416-0.906-0.525C52.851,30.683,52.114,30.772,51.512,31.146L51.512,31.146z M59.693,32.188
	c0.443-0.004,0.882-0.111,1.283-0.313l1.678-1.042c0.3-0.176,0.563-0.414,0.775-0.699c0.213-0.285,0.37-0.611,0.463-0.96
	c0.186-0.704,0.1-1.453-0.24-2.097c-0.168-0.313-0.395-0.59-0.668-0.816c-0.268-0.222-0.578-0.386-0.912-0.483
	c-0.668-0.195-1.389-0.1-1.984,0.264l-1.678,1.041c-0.301,0.176-0.564,0.413-0.777,0.697c-0.212,0.285-0.369,0.611-0.461,0.96
	c-0.092,0.35-0.117,0.714-0.074,1.073c0.043,0.36,0.154,0.707,0.325,1.02c0.226,0.423,0.558,0.772,0.957,1.01
	C58.779,32.082,59.234,32.201,59.693,32.188L59.693,32.188z M62.652,50.625l-1.676-1.042c-0.596-0.354-1.313-0.444-1.977-0.247
	c-0.674,0.205-1.238,0.672-1.566,1.296c-0.34,0.64-0.426,1.384-0.244,2.084c0.176,0.69,0.613,1.286,1.221,1.659l1.678,1.042
	c0.4,0.201,0.838,0.308,1.283,0.312c0.47-0.008,0.928-0.146,1.322-0.401c0.4-0.257,0.727-0.621,0.947-1.056
	c0.357-0.623,0.453-1.36,0.267-2.053c-0.092-0.34-0.251-0.658-0.47-0.936c-0.212-0.271-0.479-0.496-0.783-0.658H62.652z
	 M54.068,45.521l-3.455-2.084c-0.594-0.365-1.316-0.461-1.985-0.265c-0.331,0.097-0.64,0.261-0.912,0.483
	c-0.271,0.224-0.497,0.5-0.666,0.816c-0.341,0.645-0.427,1.393-0.239,2.098c0.092,0.349,0.25,0.675,0.461,0.959
	c0.213,0.285,0.477,0.523,0.776,0.701l3.454,2.082c0.4,0.201,0.839,0.309,1.283,0.313c0.47-0.008,0.928-0.146,1.322-0.402
	c0.4-0.257,0.727-0.621,0.947-1.056c0.363-0.62,0.462-1.36,0.275-2.056c-0.092-0.34-0.252-0.659-0.471-0.937
	C54.645,45.903,54.375,45.681,54.068,45.521z M27.422,35.938l3.454,2.083c0.401,0.202,0.84,0.308,1.283,0.312
	c0.47-0.007,0.929-0.147,1.324-0.402c0.399-0.256,0.726-0.621,0.946-1.056c0.345-0.641,0.435-1.389,0.251-2.093
	c-0.09-0.346-0.247-0.672-0.46-0.96c-0.21-0.282-0.475-0.519-0.778-0.697l-3.454-2.083c-0.593-0.366-1.314-0.462-1.983-0.265
	c-0.333,0.098-0.643,0.264-0.91,0.486c-0.269,0.225-0.493,0.504-0.66,0.82c-0.331,0.661-0.413,1.418-0.229,2.134
	C26.382,34.922,26.816,35.536,27.422,35.938L27.422,35.938z M23.179,27.083L21.5,26.042c-0.595-0.364-1.316-0.46-1.986-0.264
	c-0.33,0.096-0.64,0.26-0.911,0.483c-0.271,0.223-0.497,0.5-0.666,0.816c-0.341,0.644-0.426,1.393-0.24,2.097
	c0.092,0.349,0.249,0.675,0.461,0.96c0.213,0.285,0.477,0.522,0.776,0.7l1.678,1.041c0.4,0.202,0.839,0.309,1.283,0.313
	c0.47-0.008,0.928-0.147,1.323-0.403c0.4-0.256,0.726-0.62,0.947-1.056c0.339-0.625,0.425-1.357,0.24-2.044
	c-0.091-0.338-0.248-0.654-0.46-0.932C23.737,27.48,23.477,27.252,23.179,27.083L23.179,27.083z"/>
</svg>
