<?xml version="1.0" encoding="utf-8"?>
<!-- Generator: Adobe Illustrator 16.0.0, SVG Export Plug-In . SVG Version: 6.00 Build 0)  -->
<!DOCTYPE svg PUBLIC "-//W3C//DTD SVG 1.1//EN" "http://www.w3.org/Graphics/SVG/1.1/DTD/svg11.dtd">
<svg version="1.1" id="Layer_1" xmlns="http://www.w3.org/2000/svg" xmlns:xlink="http://www.w3.org/1999/xlink" x="0px" y="0px"
	 width="32px" height="32px" viewBox="0 0 32 32" enable-background="new 0 0 32 32" xml:space="preserve">
<linearGradient id="SVGID_1_" gradientUnits="userSpaceOnUse" x1="-99.5713" y1="1050.3047" x2="-73.0416" y2="1038.2375" gradientTransform="matrix(1 0 0 1 102.3999 -1026.9004)">
	<stop  offset="0" style="stop-color:#3B8AC9"/>
	<stop  offset="0.68" style="stop-color:#7661AA"/>
	<stop  offset="1" style="stop-color:#9451A0"/>
</linearGradient>
<path fill="url(#SVGID_1_)" d="M8.6,23.6c-0.1,0.1-0.5,0.801-1.1,0.801s-1-0.801-1-0.801L3.4,16.3l-0.8,1.899
	C2,19.6,2,21.1,2.5,22.5l1,2.4c0.4,1,1.7,2.799,4,2.799S11.1,26,11.5,25l1.9-4.4l-1.7-4.1L8.6,23.6z"/>
<radialGradient id="SVGID_2_" cx="-1169.0952" cy="219.4111" r="0.9995" gradientTransform="matrix(7.734 0 0 7.734 9049.291 -1671.7202)" gradientUnits="userSpaceOnUse">
	<stop  offset="0.51" style="stop-color:#5A4A9E;stop-opacity:0"/>
	<stop  offset="0.58" style="stop-color:#53499C;stop-opacity:0.06"/>
	<stop  offset="0.71" style="stop-color:#3F4898;stop-opacity:0.22"/>
	<stop  offset="0.87" style="stop-color:#1D4591;stop-opacity:0.5"/>
</radialGradient>
<path fill="url(#SVGID_2_)" d="M8.6,23.6c-0.1,0.1-0.5,0.801-1.1,0.801s-1-0.801-1-0.801L3.4,16.3l-0.8,1.899
	C2,19.6,2,21.1,2.5,22.5l1,2.4c0.4,1,1.7,2.799,4,2.799S11.1,26,11.5,25l1.9-4.4l-1.7-4.1L8.6,23.6z"/>
<linearGradient id="SVGID_3_" gradientUnits="userSpaceOnUse" x1="-98.8931" y1="1050.335" x2="-73.5797" y2="1039.0154" gradientTransform="matrix(1 0 0 1 102.3999 -1026.9004)">
	<stop  offset="0.03" style="stop-color:#E21587"/>
	<stop  offset="0.14" style="stop-color:#E31A82"/>
	<stop  offset="0.27" style="stop-color:#E72874"/>
	<stop  offset="0.41" style="stop-color:#EE3F5C"/>
	<stop  offset="0.44" style="stop-color:#EF4457"/>
	<stop  offset="0.52" style="stop-color:#F15553"/>
	<stop  offset="0.71" style="stop-color:#F4784B"/>
	<stop  offset="0.87" style="stop-color:#F68D46"/>
	<stop  offset="0.98" style="stop-color:#F79544"/>
</linearGradient>
<path fill="url(#SVGID_3_)" d="M31.8,15.8l-2.3-5.5c0.5,1.399,0.4,2.899-0.1,4.2L28.6,16.4l-2.5,5.901l-1.1,2.5l1.1-2.5L24.1,27
	c-0.1,0.1-0.8,1.6-2.199,1.6c-1.4,0-2-1.5-2.101-1.6l-4.6-10.7L13.5,12.2l-1.9-4.5c-0.4-1-1.7-2.8-4-2.8C5.3,5.1,4,6.8,3.5,7.8
	L0.1,15.7C0,16.1,0,16.6,0.1,17l2.4,5.5c-0.5-1.4-0.5-2.9,0-4.301L3.3,16.3l3.1-7.2C6.5,9,6.9,8.3,7.6,8.3c0.7,0,1,0.8,1,0.8
	l3.1,7.3l1.7,4.1l3.3,7.801c0.5,1.299,2.2,3.5,5,3.5s4.6-2.201,5.2-3.4L31.8,17C32,16.6,32,16.2,31.8,15.8z"/>
<linearGradient id="SVGID_4_" gradientUnits="userSpaceOnUse" x1="-98.8931" y1="1050.335" x2="-73.5797" y2="1039.0154" gradientTransform="matrix(1 0 0 1 102.3999 -1026.9004)">
	<stop  offset="0.37" style="stop-color:#FEF272;stop-opacity:0"/>
	<stop  offset="0.44" style="stop-color:#FEF272;stop-opacity:0.16"/>
	<stop  offset="0.53" style="stop-color:#FEF272;stop-opacity:0.35"/>
	<stop  offset="0.62" style="stop-color:#FEF272;stop-opacity:0.51"/>
	<stop  offset="0.71" style="stop-color:#FEF272;stop-opacity:0.64"/>
	<stop  offset="0.79" style="stop-color:#FEF272;stop-opacity:0.73"/>
	<stop  offset="0.87" style="stop-color:#FEF272;stop-opacity:0.78"/>
	<stop  offset="0.94" style="stop-color:#FEF272;stop-opacity:0.8"/>
</linearGradient>
<path fill="url(#SVGID_4_)" d="M31.8,15.8l-2.3-5.5c0.5,1.399,0.4,2.899-0.1,4.2L28.6,16.4l-2.5,5.901l-1.1,2.5l1.1-2.5L24.1,27
	c-0.1,0.1-0.8,1.6-2.199,1.6c-1.4,0-2-1.5-2.101-1.6l-4.6-10.7L13.5,12.2l-1.9-4.5c-0.4-1-1.7-2.8-4-2.8C5.3,5.1,4,6.8,3.5,7.8
	L0.1,15.7C0,16.1,0,16.6,0.1,17l2.4,5.5c-0.5-1.4-0.5-2.9,0-4.301L3.3,16.3l3.1-7.2C6.5,9,6.9,8.3,7.6,8.3c0.7,0,1,0.8,1,0.8
	l3.1,7.3l1.7,4.1l3.3,7.801c0.5,1.299,2.2,3.5,5,3.5s4.6-2.201,5.2-3.4L31.8,17C32,16.6,32,16.2,31.8,15.8z"/>
<linearGradient id="SVGID_5_" gradientUnits="userSpaceOnUse" x1="-101.0488" y1="1045.6113" x2="-74.7051" y2="1034.3488" gradientTransform="matrix(1 0 0 1 102.3999 -1026.9004)">
	<stop  offset="0" style="stop-color:#3B8AC9"/>
	<stop  offset="0.68" style="stop-color:#7661AA"/>
	<stop  offset="1" style="stop-color:#9451A0"/>
</linearGradient>
<path fill="url(#SVGID_5_)" d="M19.7,5.8C19.8,5.7,20.6,4.2,21.9,4.2c1.399,0,2,1.5,2.1,1.601l4.6,10.6l0.801-1.9
	c0.5-1.4,0.5-2.8,0.1-4.2L27,4.5C26.5,3.2,24.8,1,22,1s-4.6,2.2-5.2,3.4l-3.3,7.8l1.7,4.101L19.7,5.8z"/>
<radialGradient id="SVGID_6_" cx="-1189.9683" cy="203.6113" r="1" gradientTransform="matrix(8.9078 0 0 8.9078 10620.4277 -1805.0569)" gradientUnits="userSpaceOnUse">
	<stop  offset="0.39" style="stop-color:#712B8E;stop-opacity:0"/>
	<stop  offset="0.5" style="stop-color:#712B8E;stop-opacity:0.03"/>
	<stop  offset="0.63" style="stop-color:#712B8E;stop-opacity:0.12"/>
	<stop  offset="0.75" style="stop-color:#712B8E;stop-opacity:0.27"/>
	<stop  offset="0.88" style="stop-color:#712B8E;stop-opacity:0.49"/>
	<stop  offset="0.89" style="stop-color:#712B8E;stop-opacity:0.5"/>
</radialGradient>
<path fill="url(#SVGID_6_)" d="M19.7,5.8C19.8,5.7,20.6,4.2,21.9,4.2c1.399,0,2,1.5,2.1,1.601l4.6,10.6l0.801-1.9
	c0.5-1.4,0.5-2.8,0.1-4.2L27,4.5C26.5,3.2,24.8,1,22,1s-4.6,2.2-5.2,3.4l-3.3,7.8l1.7,4.101L19.7,5.8z"/>
</svg>
