<?xml version="1.0" encoding="utf-8"?>
<!-- Generator: Adobe Illustrator 16.0.0, SVG Export Plug-In . SVG Version: 6.00 Build 0)  -->
<!DOCTYPE svg PUBLIC "-//W3C//DTD SVG 1.1//EN" "http://www.w3.org/Graphics/SVG/1.1/DTD/svg11.dtd">
<svg version="1.1" id="Layer_1" xmlns="http://www.w3.org/2000/svg" xmlns:xlink="http://www.w3.org/1999/xlink" x="0px" y="0px"
	 width="512px" height="512px" viewBox="0 0 512 512" enable-background="new 0 0 512 512" xml:space="preserve">
<linearGradient id="SVGID_1_" gradientUnits="userSpaceOnUse" x1="344.4905" y1="655.2605" x2="-54.4695" y2="270.3405" gradientTransform="matrix(1 0 0 -1 102.3999 732.0991)">
	<stop  offset="0.05" style="stop-color:#FFF44F"/>
	<stop  offset="0.11" style="stop-color:#FFE847"/>
	<stop  offset="0.22" style="stop-color:#FFC830"/>
	<stop  offset="0.37" style="stop-color:#FF980E"/>
	<stop  offset="0.4" style="stop-color:#FF8B16"/>
	<stop  offset="0.46" style="stop-color:#FF672A"/>
	<stop  offset="0.53" style="stop-color:#FF3647"/>
	<stop  offset="0.7" style="stop-color:#E31587"/>
</linearGradient>
<path fill="url(#SVGID_1_)" d="M478.709,166.38c-10.439-25.13-31.6-52.26-48.209-60.83c13.52,26.511,21.34,53.101,24.329,72.94
	c0,0,0,0.14,0.051,0.4C427.709,111.15,381.63,83.83,344,24.36c-1.91-3-3.811-6-5.671-9.21c-1.05-1.811-1.899-3.45-2.64-5
	c-1.56-3.007-2.764-6.185-3.59-9.47c0.014-0.323-0.22-0.604-0.54-0.65c-0.147-0.04-0.303-0.04-0.45,0
	c-0.04,0.019-0.076,0.042-0.109,0.07c-0.061,0-0.12,0.069-0.181,0.09l0.101-0.13c-60.37,35.359-80.851,100.77-82.73,133.5
	c-24.124,1.649-47.19,10.532-66.189,25.489c-1.986-1.679-4.063-3.248-6.221-4.699c-5.475-19.168-5.706-39.453-0.67-58.74
	c-24.689,11.25-43.89,29-57.85,44.71h-0.11c-9.529-12.07-8.859-51.88-8.319-60.19c-0.11-0.52-7.101,3.631-8,4.261
	c-8.409,5.999-16.271,12.731-23.49,20.12c-8.216,8.329-15.722,17.331-22.44,26.909c-15.456,21.904-26.417,46.654-32.25,72.82
	c-0.109,0.521-0.21,1.061-0.319,1.59c-0.45,2.11-2.08,12.7-2.37,15v0.53c-2.125,10.942-3.448,22.025-3.96,33.16v1.229
	C16,388.47,123.6,496.07,256.32,496.07c118.87,0,217.561-86.3,236.891-199.66c0.399-3.07,0.729-6.17,1.09-9.27
	C499.079,245.92,493.77,202.6,478.709,166.38L478.709,166.38z M201.71,354.5c1.12,0.53,2.18,1.12,3.33,1.641l0.16,0.1
	c-1.15-0.56-2.32-1.14-3.48-1.74H201.71z M454.9,179v-0.229v0.26V179z"/>
<radialGradient id="SVGID_2_" cx="326.0598" cy="677.0408" r="501.01" gradientTransform="matrix(1 0 0 -1 102.3999 732.0991)" gradientUnits="userSpaceOnUse">
	<stop  offset="0.13" style="stop-color:#FFBD4F"/>
	<stop  offset="0.19" style="stop-color:#FFAC31"/>
	<stop  offset="0.25" style="stop-color:#FF9D17"/>
	<stop  offset="0.28" style="stop-color:#FF980E"/>
	<stop  offset="0.4" style="stop-color:#FF563B"/>
	<stop  offset="0.47" style="stop-color:#FF3750"/>
	<stop  offset="0.71" style="stop-color:#F5156C"/>
	<stop  offset="0.78" style="stop-color:#EB0878"/>
	<stop  offset="0.86" style="stop-color:#E50080"/>
</radialGradient>
<path fill="url(#SVGID_2_)" d="M478.709,166.38c-10.439-25.13-31.6-52.26-48.209-60.83c13.52,26.511,21.34,53.101,24.329,72.94v0.49
	c22.681,61.479,10.32,124-7.479,162.2c-27.54,59.1-94.21,119.68-198.58,116.729C136.1,454.711,36.77,371,18.22,261.45
	c-3.38-17.29,0-26.06,1.7-40.09c-2.07,10.81-2.86,13.94-3.891,33.16v1.229c0,132.721,107.601,240.32,240.32,240.32
	c118.87,0,217.56-86.3,236.89-199.66c0.4-3.07,0.73-6.17,1.09-9.27C499.079,245.92,493.77,202.6,478.709,166.38z"/>
<radialGradient id="SVGID_3_" cx="142.99" cy="472.2195" r="501.0109" gradientTransform="matrix(1 0 0 -1 102.3999 732.0991)" gradientUnits="userSpaceOnUse">
	<stop  offset="0.3" style="stop-color:#960E18"/>
	<stop  offset="0.35" style="stop-color:#B11927;stop-opacity:0.74"/>
	<stop  offset="0.43" style="stop-color:#DB293D;stop-opacity:0.34"/>
	<stop  offset="0.5" style="stop-color:#F5334B;stop-opacity:0.09"/>
	<stop  offset="0.53" style="stop-color:#FF3750;stop-opacity:0"/>
</radialGradient>
<path fill="url(#SVGID_3_)" d="M478.709,166.38c-10.439-25.13-31.6-52.26-48.209-60.83c13.52,26.511,21.34,53.101,24.329,72.94v0.49
	c22.681,61.479,10.32,124-7.479,162.2c-27.54,59.1-94.21,119.68-198.58,116.729C136.1,454.711,36.77,371,18.22,261.45
	c-3.38-17.29,0-26.06,1.7-40.09c-2.07,10.81-2.86,13.94-3.891,33.16v1.229c0,132.721,107.601,240.32,240.32,240.32
	c118.87,0,217.56-86.3,236.89-199.66c0.4-3.07,0.73-6.17,1.09-9.27C499.079,245.92,493.77,202.6,478.709,166.38z"/>
<radialGradient id="SVGID_4_" cx="203.3997" cy="790.739" r="362.9585" gradientTransform="matrix(1 0 0 -1 102.3999 732.0991)" gradientUnits="userSpaceOnUse">
	<stop  offset="0.13" style="stop-color:#FFF44F"/>
	<stop  offset="0.25" style="stop-color:#FFDC3E"/>
	<stop  offset="0.51" style="stop-color:#FF9D12"/>
	<stop  offset="0.53" style="stop-color:#FF980E"/>
</radialGradient>
<path fill="url(#SVGID_4_)" d="M361.92,194.62c0.529,0.37,1,0.74,1.5,1.11c-6.032-10.71-13.546-20.513-22.32-29.12
	C266.4,91.91,321.52,4.63,330.81,0.19l0.1-0.13c-60.369,35.359-80.85,100.77-82.729,133.5c2.8-0.19,5.59-0.431,8.44-0.431
	C301.67,133.13,340.909,157.91,361.92,194.62L361.92,194.62z"/>
<radialGradient id="SVGID_5_" cx="87.5793" cy="341.3513" r="238.5488" gradientTransform="matrix(1 0 0 -1 102.3999 732.0991)" gradientUnits="userSpaceOnUse">
	<stop  offset="0.35" style="stop-color:#3A8EE6"/>
	<stop  offset="0.47" style="stop-color:#5C79F0"/>
	<stop  offset="0.67" style="stop-color:#9059FF"/>
	<stop  offset="1" style="stop-color:#C139E6"/>
</radialGradient>
<path fill="url(#SVGID_5_)" d="M256.77,209.54c-0.39,6-21.51,26.601-28.899,26.601c-68.341,0-79.431,41.34-79.431,41.34
	c3,34.82,27.261,63.49,56.61,78.66c1.34,0.689,2.689,1.31,4,1.93c2.35,1,4.71,2,7.06,2.89c10.065,3.551,20.605,5.573,31.271,6
	c119.779,5.62,143-143.22,56.55-186.439c22.13-3.851,45.109,5.06,57.939,14.069c-21-36.71-60.25-61.489-105.3-61.489
	c-2.85,0-5.64,0.239-8.439,0.43c-24.106,1.67-47.151,10.563-66.13,25.52c3.67,3.11,7.81,7.25,16.52,15.83
	C214.86,191,256.68,207.59,256.77,209.54L256.77,209.54z"/>
<radialGradient id="SVGID_6_" cx="109.3611" cy="550.8923" r="126.4791" gradientTransform="matrix(0.97 -0.24 -0.28 -1.14 300.7549 854.5995)" gradientUnits="userSpaceOnUse">
	<stop  offset="0.21" style="stop-color:#9059FF;stop-opacity:0"/>
	<stop  offset="0.28" style="stop-color:#8C4FF3;stop-opacity:0.06"/>
	<stop  offset="0.75" style="stop-color:#7716A8;stop-opacity:0.45"/>
	<stop  offset="0.97" style="stop-color:#6E008B;stop-opacity:0.6"/>
</radialGradient>
<path fill="url(#SVGID_6_)" d="M256.77,209.54c-0.39,6-21.51,26.601-28.899,26.601c-68.341,0-79.431,41.34-79.431,41.34
	c3,34.82,27.261,63.49,56.61,78.66c1.34,0.689,2.689,1.31,4,1.93c2.35,1,4.71,2,7.06,2.89c10.065,3.551,20.605,5.573,31.271,6
	c119.779,5.62,143-143.22,56.55-186.439c22.13-3.851,45.109,5.06,57.939,14.069c-21-36.71-60.25-61.489-105.3-61.489
	c-2.85,0-5.64,0.239-8.439,0.43c-24.106,1.67-47.151,10.563-66.13,25.52c3.67,3.11,7.81,7.25,16.52,15.83
	C214.86,191,256.68,207.59,256.77,209.54L256.77,209.54z"/>
<radialGradient id="SVGID_7_" cx="136.6609" cy="697.5398" r="171.6207" gradientTransform="matrix(1 0 0 -1 102.3999 732.0991)" gradientUnits="userSpaceOnUse">
	<stop  offset="0" style="stop-color:#FFE226"/>
	<stop  offset="0.12" style="stop-color:#FFDB27"/>
	<stop  offset="0.3" style="stop-color:#FFC82A"/>
	<stop  offset="0.5" style="stop-color:#FFA930"/>
	<stop  offset="0.73" style="stop-color:#FF7E37"/>
	<stop  offset="0.79" style="stop-color:#FF7139"/>
</radialGradient>
<path fill="url(#SVGID_7_)" d="M170.83,151.06c1.949,1.26,3.55,2.319,5,3.29c-5.476-19.168-5.707-39.453-0.67-58.74
	c-24.69,11.25-43.891,29-57.851,44.71C118.44,140.29,153.3,139.66,170.83,151.06z"/>
<radialGradient id="SVGID_8_" cx="271.5598" cy="806.3894" r="732.21" gradientTransform="matrix(1 0 0 -1 102.3999 732.0991)" gradientUnits="userSpaceOnUse">
	<stop  offset="0.11" style="stop-color:#FFF44F"/>
	<stop  offset="0.46" style="stop-color:#FF980E"/>
	<stop  offset="0.62" style="stop-color:#FF5634"/>
	<stop  offset="0.72" style="stop-color:#FF3647"/>
	<stop  offset="0.9" style="stop-color:#E31587"/>
</radialGradient>
<path fill="url(#SVGID_8_)" d="M18.22,261.45C36.77,371,136.1,454.711,248.85,457.91c104.37,2.95,171-57.63,198.58-116.729
	c17.8-38.21,30.16-100.721,7.479-162.2v-0.46c0,0.06,0,0.14,0.05,0.399c8.521,55.67-19.789,109.601-64.05,146.07
	c-0.046,0.103-0.089,0.206-0.13,0.31c-86.25,70.23-168.779,42.37-185.489,31c-1.16-0.56-2.33-1.14-3.49-1.739
	c-50.29-24-71.061-69.851-66.61-109.141c-42.45,0-56.93-35.819-56.93-35.819s38.12-27.181,88.36-3.54
	c46.529,21.899,90.229,3.55,90.229,3.54c-0.09-1.95-41.91-18.59-58.22-34.66c-8.71-8.58-12.851-12.72-16.521-15.83
	c-1.985-1.68-4.062-3.248-6.22-4.7c-1.43-1-3-2-5-3.29c-17.53-11.399-52.39-10.77-53.54-10.74h-0.11
	c-9.529-12.069-8.859-51.88-8.319-60.189c-0.11-0.521-7.101,3.63-8,4.26c-8.409,5.999-16.271,12.732-23.49,20.12
	c-8.216,8.33-15.722,17.331-22.44,26.91c-15.455,21.903-26.417,46.654-32.25,72.82C22.55,204.76,14,242.09,18.22,261.45
	L18.22,261.45z"/>
<radialGradient id="SVGID_9_" cx="329.7874" cy="926.7068" r="536.3681" gradientTransform="matrix(0.1 0.99 0.65 -0.07 -332.1551 -255.9108)" gradientUnits="userSpaceOnUse">
	<stop  offset="0" style="stop-color:#FFF44F"/>
	<stop  offset="0.06" style="stop-color:#FFE847"/>
	<stop  offset="0.17" style="stop-color:#FFC830"/>
	<stop  offset="0.3" style="stop-color:#FF980E"/>
	<stop  offset="0.36" style="stop-color:#FF8B16"/>
	<stop  offset="0.45" style="stop-color:#FF672A"/>
	<stop  offset="0.57" style="stop-color:#FF3647"/>
	<stop  offset="0.74" style="stop-color:#E31587"/>
</radialGradient>
<path fill="url(#SVGID_9_)" d="M341.1,166.61c8.774,8.607,16.288,18.41,22.32,29.12c1.249,0.938,2.451,1.939,3.6,3
	C421.5,248.89,393,319.9,390.829,325C435.09,288.53,463.4,234.6,454.88,178.93C427.709,111.15,381.63,83.83,344,24.36
	c-1.91-3-3.811-6-5.671-9.21c-1.05-1.811-1.899-3.45-2.64-5c-1.56-3.007-2.764-6.185-3.59-9.47c0.014-0.323-0.22-0.604-0.54-0.65
	c-0.147-0.04-0.303-0.04-0.45,0c-0.04,0.019-0.076,0.042-0.109,0.07c-0.061,0-0.12,0.069-0.181,0.09
	C321.52,4.63,266.4,91.91,341.1,166.61z"/>
<radialGradient id="SVGID_10_" cx="132.6199" cy="633.9792" r="457.12" gradientTransform="matrix(1 0 0 -1 102.3999 732.0991)" gradientUnits="userSpaceOnUse">
	<stop  offset="0.14" style="stop-color:#FFF44F"/>
	<stop  offset="0.48" style="stop-color:#FF980E"/>
	<stop  offset="0.59" style="stop-color:#FF5634"/>
	<stop  offset="0.66" style="stop-color:#FF3647"/>
	<stop  offset="0.9" style="stop-color:#E31587"/>
</radialGradient>
<path fill="url(#SVGID_10_)" d="M367,198.68c-1.149-1.061-2.351-2.062-3.601-3c-0.49-0.37-1-0.74-1.5-1.11
	c-12.83-9-35.81-17.92-57.939-14.07C390.4,223.72,367.19,372.56,247.41,366.94c-10.665-0.428-21.205-2.45-31.271-6
	c-2.35-0.88-4.71-1.851-7.06-2.891c-1.36-0.619-2.71-1.239-4-1.93l0.159,0.101c16.711,11.399,99.24,39.26,185.49-31
	c0,0,0.05-0.131,0.13-0.311C393,319.9,421.5,248.89,367,198.68z"/>
<radialGradient id="SVGID_11_" cx="253.2898" cy="607.2195" r="500.32" gradientTransform="matrix(1 0 0 -1 102.3999 732.0991)" gradientUnits="userSpaceOnUse">
	<stop  offset="0.09" style="stop-color:#FFF44F"/>
	<stop  offset="0.23" style="stop-color:#FFE141"/>
	<stop  offset="0.51" style="stop-color:#FFAF1E"/>
	<stop  offset="0.63" style="stop-color:#FF980E"/>
</radialGradient>
<path fill="url(#SVGID_11_)" d="M148.44,277.48c0,0,11.09-41.34,79.431-41.34c7.39,0,28.51-20.62,28.899-26.601
	c0.391-5.979-43.7,18.36-90.229-3.54c-50.24-23.64-88.36,3.54-88.36,3.54s14.48,35.82,56.93,35.82
	c-4.449,39.29,16.32,85.1,66.61,109.14c1.12,0.53,2.18,1.12,3.33,1.641C175.7,341,151.47,312.301,148.44,277.48L148.44,277.48z"/>
<linearGradient id="SVGID_12_" gradientUnits="userSpaceOnUse" x1="339.7004" y1="657.3083" x2="0.241" y2="317.8391" gradientTransform="matrix(1 0 0 -1 102.3999 732.0991)">
	<stop  offset="0.17" style="stop-color:#FFF44F;stop-opacity:0.8"/>
	<stop  offset="0.27" style="stop-color:#FFF44F;stop-opacity:0.63"/>
	<stop  offset="0.49" style="stop-color:#FFF44F;stop-opacity:0.22"/>
	<stop  offset="0.6" style="stop-color:#FFF44F;stop-opacity:0"/>
</linearGradient>
<path fill="url(#SVGID_12_)" d="M478.709,166.38c-10.439-25.13-31.6-52.26-48.209-60.83c13.52,26.511,21.34,53.101,24.329,72.94
	c0,0,0,0.14,0.051,0.4C427.709,111.15,381.63,83.83,344,24.36c-1.91-3-3.811-6-5.671-9.21c-1.05-1.811-1.899-3.45-2.64-5
	c-1.56-3.007-2.764-6.185-3.59-9.47c0.014-0.323-0.22-0.604-0.54-0.65c-0.147-0.04-0.303-0.04-0.45,0
	c-0.04,0.019-0.076,0.042-0.109,0.07c-0.061,0-0.12,0.069-0.181,0.09l0.101-0.13c-60.37,35.359-80.851,100.77-82.73,133.5
	c2.8-0.19,5.59-0.431,8.44-0.431c45.05,0,84.29,24.78,105.3,61.49c-12.83-9-35.811-17.92-57.94-14.069
	c86.44,43.22,63.23,192.06-56.55,186.439c-10.664-0.428-21.204-2.45-31.27-6c-2.351-0.88-4.71-1.85-7.061-2.89
	c-1.359-0.62-2.71-1.24-4-1.931l0.16,0.101c-1.16-0.561-2.33-1.141-3.49-1.74c1.12,0.53,2.181,1.12,3.33,1.64
	C175.7,341,151.47,312.301,148.44,277.48c0,0,11.09-41.34,79.431-41.34c7.39,0,28.51-20.62,28.899-26.601
	c-0.09-1.95-41.91-18.59-58.22-34.66c-8.71-8.579-12.85-12.72-16.521-15.829c-1.985-1.68-4.062-3.249-6.22-4.7
	c-5.476-19.168-5.706-39.453-0.67-58.74c-24.689,11.25-43.89,29-57.85,44.71h-0.11c-9.53-12.07-8.86-51.88-8.32-60.19
	c-0.109-0.52-7.1,3.631-8,4.261c-8.409,5.999-16.27,12.731-23.489,20.12c-8.217,8.329-15.723,17.331-22.44,26.909
	c-15.456,21.904-26.417,46.654-32.25,72.82c-0.11,0.521-0.21,1.061-0.32,1.59c-0.449,2.11-2.489,12.851-2.77,15.15
	c0,0.18,0-0.17,0,0c-1.872,11.097-3.071,22.298-3.59,33.54v1.229C16,388.47,123.6,496.07,256.32,496.07
	c118.87,0,217.561-86.3,236.891-199.66c0.399-3.07,0.729-6.17,1.09-9.27C499.079,245.92,493.77,202.6,478.709,166.38L478.709,166.38
	z M454.869,178.72v0.26V178.72z"/>
</svg>
