<?xml version="1.0" encoding="utf-8"?>
<!-- Generator: Adobe Illustrator 16.0.0, SVG Export Plug-In . SVG Version: 6.00 Build 0)  -->
<!DOCTYPE svg PUBLIC "-//W3C//DTD SVG 1.1//EN" "http://www.w3.org/Graphics/SVG/1.1/DTD/svg11.dtd">
<svg version="1.1" id="Layer_1" xmlns="http://www.w3.org/2000/svg" xmlns:xlink="http://www.w3.org/1999/xlink" x="0px" y="0px"
	 width="80px" height="80px" viewBox="0 0 80 80" enable-background="new 0 0 80 80" xml:space="preserve">
<linearGradient id="SVGID_1_" gradientUnits="userSpaceOnUse" x1="-27.5908" y1="-438.4448" x2="-94.6594" y2="-480.6925" gradientTransform="matrix(1 0 0 -1 102.3999 -417.9004)">
	<stop  offset="0" style="stop-color:#9658F9"/>
	<stop  offset="0.13" style="stop-color:#9356F4"/>
	<stop  offset="0.29" style="stop-color:#8951E5"/>
	<stop  offset="0.46" style="stop-color:#7A49CD"/>
	<stop  offset="0.64" style="stop-color:#643DAB"/>
	<stop  offset="0.82" style="stop-color:#492E81"/>
	<stop  offset="1" style="stop-color:#291D4F"/>
</linearGradient>
<path fill="url(#SVGID_1_)" d="M75.91,26.82c-1.689-4.05-5.1-8.43-7.78-9.81c2.181,4.27,3.44,8.56,3.931,11.76v0.06
	C67.68,17.91,60.24,13.51,54.17,3.92c-0.311-0.49-0.609-0.97-0.92-1.49c-0.17-0.29-0.3-0.55-0.42-0.8c-0.25-0.49-0.45-1-0.58-1.53
	c0-0.03-0.01-0.05-0.02-0.07C52.21,0.01,52.189,0,52.17,0c-0.02-0.01-0.05-0.01-0.07,0l-0.02,0.01c-0.01,0-0.02,0.01-0.03,0.01
	L52.061,0C42.32,5.7,39.02,16.25,38.72,21.53c-3.89,0.271-7.61,1.7-10.67,4.11c-0.32-0.27-0.66-0.52-1-0.76
	c-0.88-3.09-0.92-6.36-0.11-9.47c-3.98,1.81-7.08,4.68-9.33,7.21h0.01c-1.54-1.95-1.43-8.37-1.34-9.71
	c-0.02-0.08-1.15,0.59-1.29,0.69c-1.36,0.97-2.62,2.05-3.79,3.25c-1.33,1.34-2.54,2.8-3.62,4.34c-2.5,3.53-4.27,7.52-5.21,11.74
	c-0.02,0.08-0.03,0.17-0.05,0.26c-0.07,0.34-0.34,2.05-0.38,2.42v0.08c-0.34,1.76-0.55,3.55-0.63,5.35v0.2
	C1.31,62.65,18.66,80,40.07,80c19.17,0,35.09-13.92,38.209-32.2c0.07-0.489,0.121-0.989,0.181-1.489
	C79.2,39.65,78.33,32.66,75.91,26.82z M31.23,57.16c0.18,0.09,0.35,0.18,0.54,0.26l0.03,0.02C31.61,57.35,31.42,57.25,31.23,57.16z
	 M72.07,28.85v-0.04V28.85z"/>
<radialGradient id="SVGID_2_" cx="-1067.1074" cy="701.4648" r="1.3333" gradientTransform="matrix(-23.5301 55.8694 59 24.8486 -66430.3906 42200.9688)" gradientUnits="userSpaceOnUse">
	<stop  offset="0" style="stop-color:#9658F9"/>
	<stop  offset="0.65" style="stop-color:#291D4F"/>
</radialGradient>
<path fill="url(#SVGID_2_)" d="M75.91,26.82c-1.689-4.05-5.1-8.43-7.78-9.81c2.181,4.27,3.44,8.56,3.931,11.76v0.08
	c3.66,9.91,1.66,20-1.211,26.16C66.41,64.54,55.65,74.311,38.83,73.84C20.65,73.32,4.63,59.83,1.64,42.15
	c-0.55-2.791,0-4.2,0.27-6.46c-0.33,1.74-0.46,2.25-0.63,5.35v0.2C1.28,62.65,18.63,80,40.04,80c19.17,0,35.09-13.92,38.21-32.2
	c0.07-0.5,0.12-0.989,0.18-1.489C79.2,39.65,78.33,32.66,75.91,26.82z"/>
<radialGradient id="SVGID_3_" cx="-1061.1885" cy="662.1543" r="1.3339" gradientTransform="matrix(60.5531 0 0 -60.5531 64304.8789 40145.2148)" gradientUnits="userSpaceOnUse">
	<stop  offset="0.25" style="stop-color:#AB71FF;stop-opacity:0"/>
	<stop  offset="0.42" style="stop-color:#9462E0;stop-opacity:0.18"/>
	<stop  offset="0.73" style="stop-color:#573B8D;stop-opacity:0.65"/>
	<stop  offset="0.94" style="stop-color:#291D4F"/>
</radialGradient>
<path fill="url(#SVGID_3_)" d="M75.91,26.82c-1.689-4.05-5.1-8.43-7.78-9.81c2.181,4.27,3.44,8.56,3.931,11.76v0.08
	c3.66,9.91,1.66,20-1.211,26.16C66.41,64.54,55.65,74.311,38.83,73.84C20.65,73.32,4.63,59.83,1.64,42.15
	c-0.55-2.791,0-4.2,0.27-6.46c-0.33,1.74-0.46,2.25-0.63,5.35v0.2C1.28,62.65,18.63,80,40.04,80c19.17,0,35.09-13.92,38.21-32.2
	c0.07-0.5,0.12-0.989,0.18-1.489C79.2,39.65,78.33,32.66,75.91,26.82z"/>
<radialGradient id="SVGID_4_" cx="-1054.8799" cy="655.417" r="1.3262" gradientTransform="matrix(43.7736 0 0 -43.7736 46232.2617 28688.2676)" gradientUnits="userSpaceOnUse">
	<stop  offset="0.18" style="stop-color:#9658F9"/>
	<stop  offset="0.33" style="stop-color:#7E48EA"/>
	<stop  offset="0.37" style="stop-color:#7542E5"/>
	<stop  offset="0.41" style="stop-color:#6A3DD0"/>
	<stop  offset="0.48" style="stop-color:#5332A2"/>
	<stop  offset="0.56" style="stop-color:#41297E"/>
	<stop  offset="0.63" style="stop-color:#342264"/>
	<stop  offset="0.69" style="stop-color:#2C1E54"/>
	<stop  offset="0.74" style="stop-color:#291D4F"/>
</radialGradient>
<path fill="url(#SVGID_4_)" d="M57.08,31.38l0.24,0.18c-0.971-1.73-2.18-3.31-3.6-4.7c-12.051-12.05-3.16-26.13-1.66-26.84L52.07,0
	C42.33,5.7,39.03,16.25,38.73,21.53c0.45-0.03,0.9-0.07,1.36-0.07C47.359,21.46,53.689,25.45,57.08,31.38z"/>
<radialGradient id="SVGID_5_" cx="-1043.4263" cy="641.9238" r="1.3339" gradientTransform="matrix(28.8575 0 0 -28.8575 30139.5684 18583.5098)" gradientUnits="userSpaceOnUse">
	<stop  offset="0.07" style="stop-color:#9358FC"/>
	<stop  offset="0.13" style="stop-color:#9857F8"/>
	<stop  offset="0.21" style="stop-color:#A755EB"/>
	<stop  offset="0.3" style="stop-color:#BF52D7"/>
	<stop  offset="0.39" style="stop-color:#E14EBA"/>
	<stop  offset="0.42" style="stop-color:#EF4CAF"/>
	<stop  offset="0.74" style="stop-color:#FF7583"/>
	<stop  offset="0.97" style="stop-color:#FFB753"/>
</radialGradient>
<path fill="url(#SVGID_5_)" d="M40.2,33.78c-0.06,0.96-3.47,4.29-4.66,4.29c-11.02,0-12.81,6.67-12.81,6.67
	c0.49,5.619,4.4,10.24,9.13,12.689c0.22,0.11,0.43,0.211,0.65,0.311c0.38,0.17,0.76,0.32,1.14,0.47c1.62,0.569,3.32,0.899,5.04,0.97
	c19.32,0.91,23.06-23.1,9.121-30.07c3.569-0.62,7.279,0.82,9.35,2.27c-3.391-5.92-9.721-9.92-16.98-9.92
	c-0.46,0-0.92,0.04-1.36,0.07c-3.89,0.271-7.61,1.7-10.67,4.11c0.59,0.5,1.26,1.17,2.66,2.55C33.43,30.78,40.18,33.46,40.2,33.78
	L40.2,33.78z"/>
<radialGradient id="SVGID_6_" cx="-1032.2969" cy="607.5225" r="1.3333" gradientTransform="matrix(14.8399 -3.6717 -4.3134 -17.4334 17977.8359 6832.4561)" gradientUnits="userSpaceOnUse">
	<stop  offset="0.22" style="stop-color:#FFB653;stop-opacity:0.3"/>
	<stop  offset="0.34" style="stop-color:#FF807A;stop-opacity:0.5"/>
	<stop  offset="0.44" style="stop-color:#FF7781;stop-opacity:0.48"/>
	<stop  offset="0.57" style="stop-color:#FF5C94;stop-opacity:0.43"/>
	<stop  offset="0.64" style="stop-color:#FF4AA2;stop-opacity:0.4"/>
	<stop  offset="0.86" style="stop-color:#9658F9;stop-opacity:0.3"/>
</radialGradient>
<path fill="url(#SVGID_6_)" d="M40.2,33.78c-0.06,0.96-3.47,4.29-4.66,4.29c-11.02,0-12.81,6.67-12.81,6.67
	c0.49,5.619,4.4,10.24,9.13,12.689c0.22,0.11,0.43,0.211,0.65,0.311c0.38,0.17,0.76,0.32,1.14,0.47c1.62,0.569,3.32,0.899,5.04,0.97
	c19.32,0.91,23.06-23.1,9.121-30.07c3.569-0.62,7.279,0.82,9.35,2.27c-3.391-5.92-9.721-9.92-16.98-9.92
	c-0.46,0-0.92,0.04-1.36,0.07c-3.89,0.271-7.61,1.7-10.67,4.11c0.59,0.5,1.26,1.17,2.66,2.55C33.43,30.78,40.18,33.46,40.2,33.78
	L40.2,33.78z"/>
<radialGradient id="SVGID_7_" cx="-1029.8975" cy="627.3896" r="1.3333" gradientTransform="matrix(20.7439 0 0 -20.7439 21409.6836 13027.8311)" gradientUnits="userSpaceOnUse">
	<stop  offset="0.03" style="stop-color:#9658F9"/>
	<stop  offset="0.62" style="stop-color:#7542E5"/>
	<stop  offset="0.72" style="stop-color:#6339C2"/>
	<stop  offset="0.93" style="stop-color:#37246B"/>
	<stop  offset="1" style="stop-color:#291D4F"/>
</radialGradient>
<path fill="url(#SVGID_7_)" d="M26.25,24.35c0.31,0.2,0.57,0.37,0.8,0.53c-0.88-3.09-0.92-6.36-0.11-9.47
	c-3.98,1.81-7.08,4.68-9.33,7.21C17.8,22.62,23.43,22.51,26.25,24.35z"/>
<radialGradient id="SVGID_8_" cx="-1067.5557" cy="698.5801" r="1.3333" gradientTransform="matrix(-18.9321 82.9278 65.0914 14.8601 -65632.5938 78128.8438)" gradientUnits="userSpaceOnUse">
	<stop  offset="0.2" style="stop-color:#AB71FF"/>
	<stop  offset="0.29" style="stop-color:#A46BFC"/>
	<stop  offset="0.41" style="stop-color:#9059F2"/>
	<stop  offset="0.54" style="stop-color:#7542E5"/>
	<stop  offset="0.64" style="stop-color:#6239BF"/>
	<stop  offset="0.94" style="stop-color:#291D4F"/>
</radialGradient>
<path fill="url(#SVGID_8_)" d="M1.64,42.15c2.99,17.67,19.01,31.17,37.2,31.68c16.83,0.48,27.59-9.29,32.02-18.83
	c2.871-6.16,4.861-16.24,1.211-26.16v-0.08v0.06c1.369,8.98-3.19,17.67-10.33,23.55l-0.02,0.05C47.811,63.75,34.5,59.25,31.8,57.41
	c-0.18-0.09-0.37-0.18-0.56-0.28c-8.11-3.88-11.46-11.271-10.74-17.6c-6.85,0-9.18-5.78-9.18-5.78s6.15-4.38,14.25-0.57
	c7.51,3.53,14.55,0.57,14.55,0.57c-0.01-0.32-6.76-3-9.39-5.59c-1.41-1.38-2.07-2.05-2.66-2.55c-0.32-0.27-0.66-0.52-1-0.76
	c-0.23-0.16-0.49-0.33-0.8-0.53c-2.83-1.84-8.45-1.74-8.63-1.73h-0.01c-1.54-1.95-1.43-8.37-1.34-9.71
	c-0.02-0.08-1.15,0.59-1.29,0.69c-1.36,0.97-2.62,2.05-3.79,3.25c-1.33,1.34-2.54,2.8-3.62,4.34c-2.5,3.53-4.27,7.52-5.21,11.74
	C2.33,33.01,0.96,39.03,1.64,42.15z"/>
<radialGradient id="SVGID_9_" cx="-1058.9917" cy="700.8711" r="1.3333" gradientTransform="matrix(6.8048 64.4667 42.375 -4.4729 -22440.7969 71419.1641)" gradientUnits="userSpaceOnUse">
	<stop  offset="0.09" style="stop-color:#9658F9"/>
	<stop  offset="0.14" style="stop-color:#8C51F3"/>
	<stop  offset="0.26" style="stop-color:#7542E5"/>
	<stop  offset="0.29" style="stop-color:#6E3ED6"/>
	<stop  offset="0.4" style="stop-color:#5533A6"/>
	<stop  offset="0.5" style="stop-color:#422980"/>
	<stop  offset="0.59" style="stop-color:#342365"/>
	<stop  offset="0.67" style="stop-color:#2C1E55"/>
	<stop  offset="0.74" style="stop-color:#291D4F"/>
</radialGradient>
<path fill="url(#SVGID_9_)" d="M53.721,26.86c1.409,1.39,2.619,2.97,3.6,4.7c0.209,0.16,0.41,0.32,0.58,0.47
	c8.789,8.1,4.18,19.55,3.84,20.371c7.14-5.891,11.71-14.581,10.33-23.55C67.689,17.91,60.26,13.51,54.189,3.92
	c-0.31-0.49-0.609-0.97-0.92-1.49c-0.17-0.29-0.31-0.55-0.43-0.8c-0.25-0.49-0.449-1-0.58-1.53c0-0.03-0.01-0.05-0.02-0.07
	C52.221,0.01,52.2,0,52.18,0c-0.02-0.01-0.05-0.01-0.07,0l-0.02,0.01c-0.01,0-0.02,0.01-0.029,0.01
	C50.561,0.73,41.67,14.81,53.721,26.86z"/>
<radialGradient id="SVGID_10_" cx="-1059.6299" cy="660.5117" r="1.3333" gradientTransform="matrix(55.2472 0 0 -55.2472 58586.5195 36515.0117)" gradientUnits="userSpaceOnUse">
	<stop  offset="0" style="stop-color:#9658F9"/>
	<stop  offset="0.12" style="stop-color:#9155F6"/>
	<stop  offset="0.25" style="stop-color:#834CEE"/>
	<stop  offset="0.34" style="stop-color:#7542E5"/>
	<stop  offset="0.78" style="stop-color:#291D4F"/>
</radialGradient>
<path fill="url(#SVGID_10_)" d="M57.9,32.03c-0.17-0.15-0.371-0.31-0.58-0.47l-0.24-0.18c-2.07-1.45-5.77-2.89-9.35-2.27
	C61.67,36.08,57.93,60.08,38.61,59.18c-1.72-0.07-3.42-0.4-5.04-0.97c-0.38-0.14-0.76-0.3-1.14-0.47c-0.22-0.1-0.44-0.2-0.65-0.311
	l0.03,0.021c2.7,1.84,16.01,6.329,29.92-4.99l0.02-0.05C62.08,51.58,66.68,40.13,57.9,32.03z"/>
<radialGradient id="SVGID_11_" cx="-1061.0581" cy="662.1826" r="1.3333" gradientTransform="matrix(60.3433 0 0 -60.3433 64092.1289 39986.1523)" gradientUnits="userSpaceOnUse">
	<stop  offset="0.19" style="stop-color:#9658F9"/>
	<stop  offset="0.49" style="stop-color:#834BED"/>
	<stop  offset="0.66" style="stop-color:#7542E5"/>
	<stop  offset="0.7" style="stop-color:#6B3DD2"/>
	<stop  offset="0.79" style="stop-color:#52319F"/>
	<stop  offset="0.91" style="stop-color:#291D4F"/>
</radialGradient>
<path fill="url(#SVGID_11_)" d="M22.64,44.74c0,0,1.79-6.67,12.81-6.67c1.19,0,4.6-3.32,4.66-4.29c0,0-7.05,2.96-14.55-0.57
	c-8.1-3.81-14.25,0.57-14.25,0.57s2.34,5.78,9.18,5.78c-0.72,6.34,2.63,13.719,10.74,17.6c0.18,0.09,0.35,0.18,0.54,0.26
	C27.04,54.98,23.13,50.35,22.64,44.74z"/>
<linearGradient id="SVGID_12_" gradientUnits="userSpaceOnUse" x1="-32.376" y1="-429.9678" x2="-87.1238" y2="-484.7154" gradientTransform="matrix(1 0 0 -1 102.3999 -417.9004)">
	<stop  offset="0" style="stop-color:#9059FF;stop-opacity:0.9"/>
	<stop  offset="0.61" style="stop-color:#291D4F;stop-opacity:0"/>
</linearGradient>
<path fill="url(#SVGID_12_)" d="M75.91,26.82c-1.689-4.05-5.1-8.43-7.78-9.81c2.181,4.27,3.44,8.56,3.931,11.76v0.06
	C67.68,17.91,60.24,13.51,54.17,3.92c-0.311-0.49-0.609-0.97-0.92-1.49c-0.17-0.29-0.3-0.55-0.42-0.8c-0.25-0.49-0.45-1-0.58-1.53
	c0-0.03-0.01-0.05-0.02-0.07C52.21,0.01,52.189,0,52.17,0c-0.02-0.01-0.05-0.01-0.07,0l-0.02,0.01c-0.01,0-0.02,0.01-0.03,0.01
	L52.061,0C42.32,5.7,39.02,16.25,38.72,21.53c0.45-0.03,0.9-0.07,1.36-0.07c7.27,0,13.6,4,16.98,9.92
	c-2.07-1.45-5.771-2.89-9.351-2.27c13.94,6.97,10.2,30.97-9.12,30.07c-1.72-0.07-3.42-0.4-5.04-0.97c-0.38-0.14-0.76-0.3-1.14-0.47
	c-0.22-0.1-0.44-0.2-0.65-0.311l0.03,0.021c-0.18-0.091-0.37-0.181-0.56-0.28c0.18,0.09,0.35,0.18,0.54,0.26
	c-4.73-2.449-8.65-7.07-9.13-12.68c0,0,1.79-6.67,12.81-6.67c1.19,0,4.6-3.32,4.66-4.29c-0.01-0.32-6.76-3-9.39-5.59
	c-1.41-1.38-2.07-2.05-2.66-2.55c-0.32-0.27-0.66-0.52-1-0.76c-0.88-3.09-0.92-6.36-0.11-9.47c-3.98,1.81-7.08,4.68-9.33,7.21
	c-1.54-1.95-1.43-8.37-1.34-9.71c-0.02-0.08-1.15,0.59-1.29,0.69c-1.36,0.97-2.62,2.05-3.79,3.25c-1.33,1.34-2.54,2.8-3.62,4.34
	c-2.5,3.53-4.27,7.521-5.21,11.74c-0.02,0.08-0.03,0.17-0.05,0.26c-0.07,0.34-0.4,2.07-0.45,2.44c-0.3,1.79-0.49,3.6-0.57,5.41v0.2
	c0,21.41,17.35,38.76,38.76,38.76c19.17,0,35.09-13.92,38.209-32.199c0.07-0.49,0.121-0.99,0.181-1.49
	C79.2,39.65,78.33,32.66,75.91,26.82z M72.07,28.81v0.04V28.81z"/>
</svg>
