<?xml version="1.0" encoding="utf-8"?>
<!-- Generator: Adobe Illustrator 16.0.0, SVG Export Plug-In . SVG Version: 6.00 Build 0)  -->
<!DOCTYPE svg PUBLIC "-//W3C//DTD SVG 1.1//EN" "http://www.w3.org/Graphics/SVG/1.1/DTD/svg11.dtd">
<svg version="1.1" id="Layer_1" xmlns="http://www.w3.org/2000/svg" xmlns:xlink="http://www.w3.org/1999/xlink" x="0px" y="0px"
	 width="80px" height="80px" viewBox="0 0 80 80" enable-background="new 0 0 80 80" xml:space="preserve">
<path fill="#09204D" d="M22.361,46.629l2.442,6.77l3.669,4.951l8.614,1.645l4.121,0.35l7.036-1.758l3.03-2.904L22.361,46.629z"/>
<path fill="#09204D" d="M58.818,36.642l-0.863-2.862l-2.467-4.654l-2.82-2.974l-2.995-2.139l-2.601-1.02l-3.119-1.11l-5.137-0.327
	l-3.24,0.584l-2.643,0.813l-4.69,2.745l-2.931,3.271l-2.703,4.39l-1.063,3.736l-0.199,5.668l1.014,3.865l2.236,4.4l1.576,2.125
	l2.181,2l2.723,1.842l3.358,1.461l5.619,0.658l2.934,0.082l4.343-1.223l3.882-2.131l2.497-2.131l1.937-2.311l2.738-5.359
	l0.604-3.667L58.818,36.642z"/>
<path fill="#0E56D7" d="M38.91,24.132l-2.301,2.282l3.753,1.522l2.792-3.463L38.91,24.132z"/>
<path fill="#1053D1" d="M40.362,27.936l7.266-0.221l-4.474-3.242L40.362,27.936z"/>
<path fill="#0B4FBF" d="M47.088,24.449l-3.934,0.024l4.474,3.242l4.138-0.27L47.088,24.449z"/>
<path fill="#0B48B0" d="M51.766,27.445l-2.353-3.243l3.255,1.95L51.766,27.445z"/>
<path fill="#0C45A7" d="M54.879,29.431l-3.113-1.986l0.902-1.293L54.879,29.431z"/>
<path fill="#0F46AF" d="M51.766,27.445l-0.521,2.222l2.848,1.139L51.766,27.445z"/>
<path fill="#0C47AD" d="M51.766,27.445l3.113,1.986l-0.787,1.375L51.766,27.445z"/>
<path fill="#0E4FC3" d="M47.628,27.715l4.138-0.27l-0.521,2.222L47.628,27.715z"/>
<path fill="#174DCA" d="M47.628,27.715l-3.269,2.96l4.207,2.06L47.628,27.715z"/>
<path fill="#1650D4" d="M40.362,27.936l7.266-0.221l-3.269,2.96L40.362,27.936z"/>
<path fill="#1246B2" d="M51.244,29.667l1.979,3.838l0.869-2.699L51.244,29.667z"/>
<path fill="#133EA1" d="M53.223,33.505l0.869-2.699l2.073,4.93L53.223,33.505z"/>
<path fill="#103D98" d="M54.092,30.806l3.159,2.314l-1.086,2.616L54.092,30.806L54.092,30.806z"/>
<path fill="#0B3785" d="M54.879,29.431l0.609-0.305l1.763,3.994L54.879,29.431z"/>
<path fill="#0B3685" d="M57.251,33.12l0.704,0.66l-2.467-4.654L57.251,33.12z"/>
<path fill="#0C3B91" d="M57.251,33.12l-2.372-3.689l-0.787,1.375L57.251,33.12z M52.668,26.152l2.211,3.279l0.609-0.3L52.668,26.152
	z"/>
<path fill="#0B3279" d="M58.659,38.878l-0.704-5.098l0.863,2.862l-0.17,2.236H58.659z"/>
<path fill="#0F388D" d="M57.251,33.12l1.408,5.758l-0.704-5.098L57.251,33.12z"/>
<path fill="#0D3481" d="M56.165,35.736l2.494,3.142l-1.408-5.758L56.165,35.736z"/>
<path fill="#0B2E71" d="M58.648,38.878l0.17-2.236l0.17,5.734l-0.329-3.498H58.648z"/>
<path fill="#0E2F77" d="M58.241,43.41l0.747-1.034l-0.329-3.498L58.241,43.41z"/>
<path fill="#0E2969" d="M58.385,46.043l-0.598,0.288l1.201-3.955L58.385,46.043z"/>
<path fill="#0C2A69" d="M57.787,46.331l1.201-3.955l-0.747,1.034L57.787,46.331z"/>
<path fill="#123180" d="M58.241,43.41l0.418-4.532l-1.281,1.511L58.241,43.41z"/>
<path fill="#112B70" d="M57.787,46.331l0.454-2.921l-2.472,4.152L57.787,46.331L57.787,46.331z"/>
<path fill="#12378C" d="M56.165,35.736l2.494,3.142l-1.281,1.511L56.165,35.736z"/>
<path fill="#122E7B" d="M58.241,43.41l-0.863-3.021l-1.303,3.72L58.241,43.41z"/>
<path fill="#11296C" d="M55.646,51.402l2.141-5.071l-2.002,3.696L55.646,51.402z"/>
<path fill="#142A72" d="M55.785,50.027l2.002-3.696l-2.018,1.231L55.785,50.027z"/>
<path fill="#112768" d="M57.787,46.331L55.646,51.4l2.738-5.36L57.787,46.331z M53.711,53.713l1.936-2.311l0.139-1.375
	L53.711,53.713z M51.211,55.844l2.5-2.131l-2.641,1.215L51.211,55.844z"/>
<path fill="#1C226A" d="M36.637,57.328l-2.523,0.617l0.077-1.762L36.637,57.328z"/>
<path fill="#182B7A" d="M22.609,33.359l0.696-0.258l-1.759,3.994L22.609,33.359z"/>
<path fill="#1F308D" d="M21.546,37.095l1.332-0.248l0.427-3.746L21.546,37.095z"/>
<path fill="#1E2B7F" d="M21.626,41.893l-0.08-4.797l1.332-0.248L21.626,41.893z"/>
<path fill="#1346B5" d="M51.244,29.667l-2.678,3.068l4.656,0.77L51.244,29.667z M27.876,26.521l3.418-2.339L28.243,25.7
	L27.876,26.521z"/>
<path fill="#1244AC" d="M28.243,25.698l4.69-2.745l-1.639,1.229L28.243,25.698"/>
<path fill="#0E4AB6" d="M31.294,24.182l4.282-2.042l-2.643,0.813L31.294,24.182z"/>
<path fill="#0E4BBA" d="M47.628,27.715l0.938,5.02l2.678-3.068L47.628,27.715z M33.9,23.944l3.99-1.6l-2.316-0.208L33.9,23.944z"/>
<path fill="#0A4EBC" d="M38.816,21.556l-3.24,0.584l2.316,0.208L38.816,21.556L38.816,21.556z"/>
<path fill="#0C54CC" d="M41.88,22.309l-3.988,0.039l0.924-0.792"/>
<path fill="#0B4BB4" d="M49.413,24.2l-2.325,0.247l4.678,3L49.413,24.2z M41.88,22.309l5.192,0.684l-3.119-1.11L41.88,22.309z"/>
<path fill="#0C3889" d="M49.413,24.202l-2.341-1.209l2.601,1.02L49.413,24.202z"/>
<path fill="#202575" d="M22.361,46.629l1.539,1.264l-2.27-6L22.361,46.629z M43.55,58.563l1.351-3.179l-4.919,1.321L43.55,58.563z
	 M44.9,55.384l4.111,1.142l0.25-3.18L44.9,55.384z"/>
<path fill="#1B2773" d="M51.07,54.928l-1.809-1.582l4.372-2.906L51.07,54.928z"/>
<path fill="#15276D" d="M53.634,50.439l-2.563,4.488l2.641-1.215l2.074-3.686L53.634,50.439L53.634,50.439z"/>
<path fill="#0C409D" d="M49.673,24.013l-0.26,0.189l3.255,1.95L49.673,24.013z M47.088,24.449l2.325-0.247l-2.341-1.209
	L47.088,24.449z"/>
<path fill="#0B4CB7" d="M38.816,21.556l3.064,0.753l2.073-0.426L38.816,21.556z M47.072,22.993l-5.192-0.684l5.208,2.14
	L47.072,22.993z"/>
<path fill="#0B55CE" d="M41.88,22.309l1.274,2.164l3.934-0.024L41.88,22.309z"/>
<path fill="#0A52C5" d="M41.88,22.309l1.274,2.164l-4.244-0.341L41.88,22.309z"/>
<path fill="#0951C4" d="M37.892,22.348l1.018,1.784l2.97-1.823L37.892,22.348z"/>
<path fill="#0B50C4" d="M33.902,23.944l3.99-1.596l1.018,1.784L33.902,23.944z"/>
<path fill="#0F4DBF" d="M31.294,24.182l2.608-0.238l1.674-1.8L31.294,24.182z M33.902,23.944l2.707,2.47l2.3-2.282L33.902,23.944z"
	/>
<path fill="#1546B6" d="M33.902,23.944l-4.407,4.133l1.799-3.895L33.902,23.944z"/>
<path fill="#1549BD" d="M29.495,28.077l2.812,0.467l1.595-4.6L29.495,28.077z"/>
<path fill="#144BC3" d="M32.307,28.544l1.595-4.6l2.707,2.47L32.307,28.544z"/>
<path fill="#173794" d="M25.312,28.969l0.171,1.662l2.393-4.11L25.312,28.969z"/>
<path fill="#192F84" d="M23.305,33.101l2.007-4.132l0.171,1.662L23.305,33.101z"/>
<path fill="#1A389B" d="M25.483,30.631l2.393-4.11l1.619,1.556L25.483,30.631z"/>
<path fill="#1D3089" d="M25.338,34.195l0.145-3.564l-2.178,2.47L25.338,34.195z"/>
<path fill="#1E389F" d="M25.338,34.195l0.145-3.564l2.827,2.295L25.338,34.195z"/>
<path fill="#1C40AF" d="M28.31,32.926l1.185-4.849l-4.012,2.554L28.31,32.926z"/>
<path fill="#1E41B7" d="M28.31,32.926l1.185-4.849l2.812,0.467L28.31,32.926z"/>
<path fill="#192C7D" d="M22.878,36.847l0.427-3.746l2.033,1.094L22.878,36.847z"/>
<path fill="#162467" d="M43.55,58.563l3.781-0.588l1.681-1.449L43.55,58.563z M21.35,42.762l0.279-0.871l-0.08-4.801L21.35,42.762z
	 M22.881,36.845l-1.252,5.045l2.27,6l-1.111-6.951L22.881,36.845z"/>
<path fill="#1A236A" d="M23.896,47.893l1.873,0.262l-1.312-3.061L23.896,47.893z"/>
<path fill="#132668" d="M51.07,54.928l-2.059,1.6l-1.681,1.449l3.882-2.131L51.07,54.928z M40.054,59.115l2.934,0.082l4.343-1.223
	l-3.781,0.588L40.054,59.115z M25.644,51.374l1.968,0.378l-1.843-3.6L25.644,51.374z"/>
<path fill="#1B2268" d="M34.191,56.184l-3.333-2.565l-1.385,1.333l4.641,2.994L34.191,56.184z M22.361,46.629l2.236,4.4l-0.7-3.137
	L22.361,46.629z M21.347,42.764l1.014,3.865l-0.735-4.736L21.347,42.764z M39.981,56.705l-5.79-0.521l2.446,1.145l-2.523,0.617
	L31.077,57l3.358,1.461l5.619,0.659l3.5-0.554L39.981,56.705z M25.769,48.154L23.9,47.893l1.748,3.481L25.769,48.154z
	 M22.788,40.939l1.112,6.953l0.561-2.801L22.788,40.939z M27.612,51.752l-1.968-0.378L24.6,51.029l1.576,2.125l2.181,2L31.077,57
	l-1.6-2.045L27.612,51.752z"/>
<path fill="#212A81" d="M22.878,36.847l2.643,4.088l-0.183-6.741L22.878,36.847z"/>
<path fill="#21267A" d="M22.788,40.939l1.669,4.154l1.064-4.158L22.788,40.939z"/>
<path fill="#262781" d="M24.457,45.094l1.064-4.158l1.321,3.285L24.457,45.094z"/>
<path fill="#272379" d="M25.769,48.154l5.068,3.142l-3.995-7.075L25.769,48.154z"/>
<path fill="#1E226D" d="M24.6,51.029l1.047,0.345L23.9,47.893L24.6,51.029z M35.794,52.836l-1.6,3.348l5.79,0.521L35.794,52.836z
	 M25.769,48.154l1.843,3.601l1.861,3.2l1.385-1.333L30.837,51.3L25.769,48.154z"/>
<path fill="#222475" d="M49.262,53.346l-0.25,3.18l2.059-1.601L49.262,53.346z M40.4,52.889l-0.421,3.816l4.921-1.32l-0.176-4.291
	L40.4,52.889z"/>
<path fill="#23277D" d="M22.788,40.939h2.733l-2.643-4.088L22.788,40.939z M44.725,51.094l0.176,4.29l4.361-2.038L44.725,51.094z"/>
<path fill="#1E2776" d="M44.725,51.094l2.808-2.543l1.729,4.795L44.725,51.094z"/>
<path fill="#222B86" d="M49.262,53.346l2.121-6.428l-3.851,1.633L49.262,53.346z"/>
<path fill="#192974" d="M53.634,50.439l-4.372,2.906l2.121-6.428L53.634,50.439z"/>
<path fill="#172A75" d="M55.77,47.563l-4.387-0.645l2.251,3.521l2.151-0.412L55.77,47.563z"/>
<path fill="#172D7D" d="M56.075,44.109l-4.692,2.809l4.387,0.645l2.472-4.153L56.075,44.109z"/>
<path fill="#18338A" d="M23.305,33.1l2.007-4.132l-2.7,4.39L23.305,33.1z M54.325,38.215l1.75,5.893l1.3-3.719L54.325,38.215z"/>
<path fill="#153791" d="M57.378,40.389l-1.213-4.653l-1.84,2.48L57.378,40.389z"/>
<path fill="#1B318B" d="M51.383,46.918l4.692-2.809l-4.548-2.024L51.383,46.918L51.383,46.918z"/>
<path fill="#242D8D" d="M51.383,46.918l-4.252-4.296l0.401,5.929L51.383,46.918z"/>
<path fill="#2A2B8F" d="M44.725,51.094l-3.265-2.892l6.072,0.349L44.725,51.094z"/>
<path fill="#27267F" d="M25.769,48.154l1.073-3.934l-2.385,0.873L25.769,48.154z M41.46,48.2l-1.06,4.688l4.323-1.795L41.46,48.2z"
	/>
<path fill="#2D2381" d="M34.702,49.161l-3.142-1.599l-0.723,3.733l4.954,1.54l4.611,0.053L34.702,49.161z"/>
<path fill="#2F2485" d="M40.402,52.889l1.058-4.687l-6.758,0.959L40.402,52.889z"/>
<path fill="#233196" d="M25.521,40.936l1.355-4.328l-1.538-2.413L25.521,40.936z"/>
<path fill="#293CB7" d="M28.31,32.926l5.95-1.734l-3.143,6.421L28.31,32.926z"/>
<path fill="#25339C" d="M51.383,46.918l-4.252-4.296l4.396-0.537L51.383,46.918z"/>
<path fill="#19348F" d="M56.075,44.109l-1.75-5.894l-2.798,3.869L56.075,44.109z"/>
<path fill="#2A309A" d="M47.532,48.551l-4.863-4.701l4.462-1.228L47.532,48.551L47.532,48.551z"/>
<path fill="#302B96" d="M41.46,48.202l6.072,0.349l-4.863-4.701L41.46,48.202z"/>
<path fill="#3630A7" d="M41.46,48.202l-3.325-2.708l4.534-1.645L41.46,48.202z"/>
<path fill="#173DA2" d="M27.876,26.521l0.367-0.823l-2.931,3.271L27.876,26.521z M53.223,33.505l1.1,4.711l1.84-2.48L53.223,33.505z
	"/>
<path fill="#2A36A8" d="M28.31,32.926l2.807,4.687l-4.241-1.005L28.31,32.926z"/>
<path fill="#312E9F" d="M26.876,36.608l4.241,1.005l-2.868,4.517L26.876,36.608z"/>
<path fill="#184DCD" d="M34.26,31.192l2.349-4.778l-4.302,2.13L34.26,31.192z"/>
<path fill="#272986" d="M25.521,40.936l2.728,1.194l-1.407,2.091L25.521,40.936z"/>
<path fill="#2C2584" d="M28.249,42.13l-1.407,2.091l3.995,7.075l0.723-3.733L28.249,42.13z"/>
<path fill="#32268B" d="M31.56,47.563l0.442-6.572l-3.753,1.14L31.56,47.563z"/>
<path fill="#372999" d="M31.56,47.563l6.575-2.068l-6.133-4.504L31.56,47.563z"/>
<path fill="#392DA5" d="M38.135,45.494l-0.641-5.082l-5.492,0.578L38.135,45.494z"/>
<path fill="#3338BC" d="M37.494,40.412l4.638-1.734l0.537,5.171L37.494,40.412z"/>
<path fill="#362896" d="M34.702,49.161l6.758-0.959l-3.325-2.708L34.702,49.161z"/>
<path fill="#35268F" d="M34.702,49.161l-3.142-1.599l6.575-2.068L34.702,49.161z"/>
<path fill="#2648D3" d="M34.26,31.192l4.027,0.426l-1.678-5.204L34.26,31.192z"/>
<path fill="#1057DC" d="M40.362,27.936l-3.753-1.522l1.678,5.204L40.362,27.936z"/>
<path fill="#1653DA" d="M40.362,27.936l3.998,2.739l-6.072,0.943L40.362,27.936z"/>
<path fill="#2B46D5" d="M38.287,31.618l5.956,3.159l-2.111,3.901L38.287,31.618z"/>
<path fill="#244AD7" d="M44.243,34.777l0.116-4.102l-6.072,0.943L44.243,34.777L44.243,34.777z"/>
<path fill="#2547CF" d="M44.243,34.777l0.116-4.102l4.207,2.06L44.243,34.777L44.243,34.777z"/>
<path fill="#333CC5" d="M38.287,31.618l3.845,7.06L35.389,35.3L38.287,31.618z"/>
<path fill="#3833B6" d="M37.494,40.412l4.638-1.734L35.389,35.3L37.494,40.412z"/>
<path fill="#2A41C6" d="M42.132,38.678l5.947-1.087l-3.836-2.814L42.132,38.678z"/>
<path fill="#2045C1" d="M48.566,32.735l-0.487,4.856l-3.836-2.814L48.566,32.735z"/>
<path fill="#1B43B7" d="M48.566,32.735l2.807,3.813l-3.294,1.043L48.566,32.735z"/>
<path fill="#1742AF" d="M53.223,33.505l-4.656-0.77l2.807,3.813L53.223,33.505z"/>
<path fill="#1740A9" d="M29.5,28.077l1.8-3.9l-3.418,2.339L29.5,28.077z M53.227,33.505l-1.849,3.043l2.952,1.668L53.227,33.505z"/>
<path fill="#1B3CA4" d="M51.527,42.085l2.798-3.869l-2.952-1.668L51.527,42.085z"/>
<path fill="#1F3DAD" d="M51.527,42.085l-0.154-5.537l-3.294,1.043L51.527,42.085z"/>
<path fill="#2543C3" d="M28.31,32.926l5.95-1.734l-1.953-2.648L28.31,32.926z M42.132,38.678l5,3.944l0.948-5.031L42.132,38.678z"/>
<path fill="#2E37B2" d="M42.669,43.85l4.462-1.228l-4.999-3.944L42.669,43.85L42.669,43.85z"/>
<path fill="#2D40C7" d="M34.26,31.192l1.129,4.108l2.898-3.682L34.26,31.192z"/>
<path fill="#3537B8" d="M34.26,31.192l-3.143,6.421l4.272-2.313L34.26,31.192z"/>
<path fill="#3931B0" d="M35.389,35.3l-3.387,5.69l5.492-0.578L35.389,35.3z"/>
<path fill="#3735B8" d="M37.494,40.412l0.641,5.082l4.534-1.645L37.494,40.412z M32,40.99l3.387-5.69l-4.272,2.313L32,40.99z"/>
<path fill="#342892" d="M28.249,42.13l2.868-4.517l0.885,3.377L28.249,42.13z"/>
<path fill="#232372" d="M31.077,57l3.037,0.95l-4.641-2.995L31.077,57z M30.858,53.622l3.333,2.565l1.6-3.348l-4.954-1.54
	L30.858,53.622z M39.981,56.709l0.421-3.816l-4.611-0.053L39.981,56.709z M44.9,55.384l-1.351,3.179l5.462-2.037L44.9,55.384z"/>
<path fill="#2A2F96" d="M25.521,40.936l1.355-4.328l1.373,5.522L25.521,40.936z"/>
<path fill="#2636A5" d="M26.876,36.608l1.434-3.682L25.339,34.2L26.876,36.608z M48.076,37.591l-0.948,5.031l4.399-0.537
	L48.076,37.591z"/>
<radialGradient id="SVGID_1_" cx="-62.21" cy="259.7256" r="18.9155" fx="-62.21" fy="244.2698" gradientTransform="matrix(1 0 0 -1 102.3999 300.0996)" gradientUnits="userSpaceOnUse">
	<stop  offset="0" style="stop-color:#00DDFF;stop-opacity:0.4"/>
	<stop  offset="1" style="stop-color:#7542E5;stop-opacity:0.15"/>
</radialGradient>
<path fill="url(#SVGID_1_)" d="M59.074,42.381v-0.008L58.9,36.639v-0.02l-0.862-2.861v-0.006l-2.466-4.654l-2.842-3.004h-0.006
	l-2.994-2.137h-0.013l-2.6-1.02H47.1l-3.119-1.11h-0.021L38.822,21.5H38.8l-3.24,0.585h-0.012l-2.641,0.812H32.89l-4.69,2.728
	l-2.93,3.269l-2.7,4.389v0.011l-1.064,3.736v0.014l-0.2,5.669v0.027l1.013,3.861v0.014l2.235,4.4v0.006L26.1,53.2v0.005l2.18,2
	h0.006l2.723,1.842h0.006l3.358,1.46h0.021l5.619,0.659h0.008l2.934,0.082h0.023l4.342-1.225h0.015l3.88-2.129l0.008-0.006h0.004
	l2.5-2.13l1.937-2.312l0.007-0.01l2.738-5.359v-0.021l0.6-3.664v-0.01L59.074,42.381z M28.407,55.087l-0.565-0.519l1.27,0.996
	L28.407,55.087z M36.649,57.24l-1.985-0.928l4.7,0.422L36.649,57.24z M37.372,40.34l-5.21,0.549l3.213-5.401L37.372,40.34z
	 M35.554,35.477l6.366,3.189L37.541,40.3L35.554,35.477z M37.42,40.505l0.606,4.8l-5.8-4.257L37.42,40.505z M37.95,45.463
	l-6.3,1.982l0.423-6.301L37.95,45.463z M37.6,40.585l4.88,3.241l-4.275,1.552L37.6,40.585z M37.678,40.433l4.38-1.638l0.506,4.885
	L37.678,40.433z M44.407,34.792l4.059-1.916l-0.458,4.559L44.407,34.792z M47.869,37.543l-5.58,1.02l1.982-3.663L47.869,37.543z
	 M42.13,38.5l-3.63-6.675l5.631,2.986L42.13,38.5z M41.93,38.481l-6.408-3.21l2.754-3.5L41.93,38.481z M32.035,40.773l-0.817-3.119
	l3.943-2.134L32.035,40.773z M31.495,47.291l-3.116-5.111l3.53-1.072L31.495,47.291z M37.854,45.672l-3.168,3.385l-2.9-1.475
	L37.854,45.672z M42.545,43.984l-1.13,4.07L38.3,45.523L42.545,43.984z M42.238,38.869l4.711,3.715l-4.2,1.157L42.238,38.869z
	 M42.333,38.727l5.642-1.03l-0.9,4.772L42.333,38.727z M48.178,37.472l0.452-4.509l2.606,3.54L48.178,37.472z M51.293,36.662
	l0.145,5.163l-3.217-4.189L51.293,36.662z M44.334,34.641l0.107-3.832l3.932,1.925L44.334,34.641z M44.164,34.641l-5.61-2.976
	l5.719-0.888L44.164,34.641z M35.428,35.118l-1.051-3.826l3.751,0.4L35.428,35.118z M35.291,35.261l-3.981,2.151l2.928-5.981
	L35.291,35.261z M31.9,40.934l-3.455,1.049l2.641-4.161L31.9,40.934z M31.275,47.256L26.959,44.2l1.287-1.911L31.275,47.256z
	 M31.623,47.689l2.9,1.475l-3.566,1.97L31.623,47.689z M38.144,45.609l3.114,2.537l-6.328,0.899L38.144,45.609z M42.714,44.01
	l4.601,4.444l-5.739-0.329L42.714,44.01z M42.836,43.893l4.219-1.16l0.379,5.605L42.836,43.893z M48.128,37.792l3.243,4.226
	l-4.135,0.5L48.128,37.792z M51.463,36.692l2.737,1.551L51.6,41.832L51.463,36.692z M51.492,36.514l1.699-2.791l1.009,4.324
	L51.492,36.514z M51.367,36.392l-2.608-3.542l4.327,0.715L51.367,36.392z M44.51,30.65l3.063-2.773l0.88,4.705L44.51,30.65z
	 M38.448,31.504l1.944-3.449l3.745,2.566L38.448,31.504z M34.39,31.12l2.2-4.48l1.574,4.88L34.39,31.12z M31.11,37.435l-2.67-4.458
	l5.659-1.65L31.11,37.435z M28.284,41.918l-1.292-5.195l3.99,0.945L28.284,41.918z M26.861,44.04l-1.184-2.94l2.445,1.07
	L26.861,44.04z M31.466,47.6L30.8,51.053l-3.7-6.543L31.466,47.6z M34.651,49.285l1.013,3.422l-4.612-1.434L34.651,49.285z
	 M41.352,48.303l-1.005,4.447l-5.409-3.538L41.352,48.303z M47.325,48.623l-2.601,2.355L41.7,48.3L47.325,48.623z M47.23,42.842
	l4,4.047l-3.627,1.537L47.23,42.842z M47.313,42.684l4.127-0.5l-0.14,4.535L47.313,42.684z M54.293,38.405l1.648,5.551l-4.284-1.906
	L54.293,38.405z M53.357,33.713l2.689,2.039l-1.681,2.266L53.357,33.713z M48.73,32.676l2.5-2.859l1.842,3.576L48.73,32.676z
	 M48.617,32.547l-0.873-4.673l3.365,1.817L48.617,32.547z M44.352,30.567l-3.728-2.554l6.776-0.206L44.352,30.567z M38.309,31.407
	l-1.563-4.846l3.495,1.417L38.309,31.407z M34.245,31.029l-1.809-2.454l3.987-1.975L34.245,31.029z M34.12,31.145l-5.544,1.616
	l3.724-4.083L34.12,31.145z M30.941,37.484l-3.95-0.936l1.336-3.429L30.941,37.484z M28.125,41.984l-2.5-1.096l1.243-3.967
	L28.125,41.984z M26.731,44.171l-2.151,0.787l0.959-3.75L26.731,44.171z M30.6,51.049l-4.732-2.933l1-3.675L30.6,51.049z
	 M35.419,52.809l-4.477,0.711l-0.019-2.108L35.419,52.809z M34.849,49.357l5.264,3.442l-4.259-0.048L34.849,49.357z M41.512,48.357
	l3.055,2.707l-4.045,1.68L41.512,48.357z M47.5,48.7l1.615,4.476l-4.236-2.1L47.5,48.7z M47.645,48.6l3.6-1.527l-1.986,6.015
	L47.645,48.6z M51.613,42.216l4.283,1.906l-4.418,2.646L51.613,42.216z M54.48,38.43l2.801,1.993l-1.2,3.413L54.48,38.43z
	 M54.45,38.199l1.683-2.268l1.109,4.256L54.45,38.199z M53.326,33.475L54.1,31.05l1.861,4.428L53.326,33.475z M53.209,33.286
	l-1.786-3.456l2.563,1.025L53.209,33.286z M47.932,27.786l3.729-0.244l-0.47,2L47.932,27.786z M40.549,27.851l2.625-3.257
	l4.208,3.049L40.549,27.851z M40.394,27.773l-1.352-3.541l3.95,0.318L40.394,27.773z M40.218,27.789l-3.453-1.4l2.117-2.1
	L40.218,27.789z M32.46,28.382l1.485-4.284l2.521,2.3L32.46,28.382z M28.477,32.629l1.087-4.451l2.581,0.429L28.477,32.629z
	 M26.863,36.429l-1.394-2.189l2.694-1.15L26.863,36.429z M26.789,36.629l-1.192,3.8l-0.16-5.926L26.789,36.629z M25.416,41.029
	l-0.972,3.8l-1.525-3.8H25.416z M22.88,40.863l0.081-3.729l2.409,3.725L22.88,40.863z M26.722,44.363L25.751,47.9l-1.18-2.758
	L26.722,44.363z M30.598,51.251l-2.933,0.415l-1.676-3.271L30.598,51.251z M30.758,51.398l0.019,2.078l-2.9-1.668L30.758,51.398z
	 M35.649,52.951l-1.489,3.102l-3.094-2.382L35.649,52.951z M35.823,52.982l3.918,3.617l-5.421-0.488L35.823,52.982z M36.015,52.93
	l4.3,0.049l-0.392,3.557L36.015,52.93z M44.65,51.229l0.164,4.019L40.6,52.9L44.65,51.229z M44.82,51.244l4.25,2.109l-4.086,1.91
	L44.82,51.244z M51.413,47.126l2.11,3.3l-4.101,2.725L51.413,47.126z M51.561,47.04l4.062,0.601l-1.983,2.649L51.561,47.04z
	 M51.635,46.88l4.346-2.601l-0.282,3.201L51.635,46.88z M57.375,40.68l0.768,2.686l-1.926,0.621L57.375,40.68z M56.35,36.1
	l2.199,2.772l-1.13,1.334L56.35,36.1z M54.289,31.051l2.859,2.094l-0.983,2.367L54.289,31.051z M51.343,29.612l0.462-1.965
	l2.057,2.972L51.343,29.612z M47.7,27.626l-0.5-3l4.3,2.754L47.7,27.626z M47.512,27.526l-4.101-2.969l3.601-0.023L47.512,27.526z
	 M39.176,24.068l2.676-1.642L43,24.376L39.176,24.068z M36.607,26.3l-2.477-2.26l4.581,0.172L36.607,26.3z M32.25,28.449
	l-2.572-0.428l4.031-3.78L32.25,28.449z M28.26,32.776l-2.632-2.137l3.735-2.378L28.26,32.776z M28.148,32.904l-2.719,1.16
	l0.132-3.261L28.148,32.904z M25.428,40.637l-2.443-3.78l2.274-2.452L25.428,40.637z M24.369,45.1l-0.463,2.313l-0.915-5.741
	L24.369,45.1z M24.487,45.376l1.145,2.673L24,47.82L24.487,45.376z M27.457,51.635L25.731,51.3l0.11-2.821L27.457,51.635z
	 M30.718,53.635l-1.226,1.18l-1.647-2.832L30.718,53.635z M30.864,53.729L33.809,56l-4.169-1.09L30.864,53.729z M40.472,53.023
	l4.2,2.332l-4.6,1.234L40.472,53.023z M49.165,53.482l-0.229,2.933l-3.791-1.054L49.165,53.482z M53.383,50.707L51.049,54.8
	L49.4,53.354L53.383,50.707z M55.684,47.816l0.012,2.141l-1.867,0.357L55.684,47.816z M56.15,44.172l1.9-0.613L55.887,47.2
	L56.15,44.172z M57.468,40.408l1.078-1.271L58.2,42.95L57.468,40.408z M56.259,35.722l0.968-2.331l1.254,5.129L56.259,35.722z
	 M54.2,30.782l0.68-1.187l2.05,3.186L54.2,30.782z M54.082,30.647l-2.012-2.9l2.691,1.716L54.082,30.647z M47.333,24.508
	l2.036-0.217l2.061,2.841L47.333,24.508z M43.197,24.388l-1.12-1.905l4.584,1.884L43.197,24.388z M38.936,24.014l-0.9-1.582
	l3.538-0.036L38.936,24.014z M38.756,24.041L34.3,23.874l3.551-1.419L38.756,24.041z M29.756,27.717l1.6-3.455l2.314-0.211
	L29.756,27.717z M29.469,27.933l-1.458-1.4l3.078-2.105L29.469,27.933z M29.36,28.063l-3.627,2.309l2.167-3.715L29.36,28.063z
	 M25.26,34.056l-1.82-0.979l1.95-2.211L25.26,34.056z M25.203,34.217L22.991,36.6l0.384-3.365L25.203,34.217z M22.7,40.9
	l-0.935,0.764l1.007-4.055L22.7,40.9z M22.723,41.1l0.954,5.986l-1.955-5.166L22.723,41.1z M25.677,48.229l-0.109,2.813L24.044,48
	L25.677,48.229z M27.554,51.829L29.11,54.5l-3.194-2.984L27.554,51.829z M34.1,56.249l-0.067,1.545l-4.072-2.627L34.1,56.249z
	 M34.267,56.314l2.114,0.988l-2.18,0.533L34.267,56.314z M39.896,56.807l0.066,2.168l-3.071-1.607L39.896,56.807z M44.751,55.507
	l-1.246,2.933l-3.294-1.713L44.751,55.507z M44.951,55.48l3.789,1.053l-5.032,1.877L44.951,55.48z M49.335,53.516l1.604,1.4
	l-1.828,1.424L49.335,53.516z M53.691,50.512l1.85-0.355l-4.057,4.217L53.691,50.512z M55.87,49.693l-0.013-2.088l1.707-1.043
	L55.87,49.693z M56.02,47.309l2.07-3.479l-0.381,2.449L56.02,47.309z M58.662,39.788l0.242,2.56l-0.549,0.758L58.662,39.788z
	 M57.4,33.377l0.473,0.444l0.475,3.43L57.4,33.377z M55,29.465l0.445-0.224l1.287,2.919L55,29.465z M51.883,27.421l0.782-1.119
	l1.914,2.839L51.883,27.421z M51.762,27.299l-2.039-2.812l2.822,1.691L51.762,27.299z M47.17,24.355l-0.013-1.222l1.964,1.014
	L47.17,24.355z M47,24.322l-4.488-1.844l4.475,0.589L47,24.322z M38.121,22.261l0.715-0.613l2.369,0.583L38.121,22.261z
	 M34.221,23.725l1.389-1.5l1.922,0.173L34.221,23.725z M33.862,23.863l-2.1,0.191l3.455-1.646L33.862,23.863z M28.076,26.281
	l0.232-0.521l1.931-0.959L28.076,26.281z M25.541,30.363L25.4,29l2.1-2L25.541,30.363z M25.395,30.603l-1.742,1.975l1.605-3.3
	L25.395,30.603z M22.8,36.775l-1.112,0.207l1.469-3.335L22.8,36.775z M22.763,36.955L21.7,41.24l-0.068-4.075L22.763,36.955z
	 M23.7,47.624l-1.264-1.04l-0.606-3.9L23.7,47.624z M25.472,51.225l-0.807-0.266l-0.54-2.419L25.472,51.225z M28.923,54.553
	L26.245,53.1l-0.431-1.447L28.923,54.553z M29.413,55.012l1.161,1.48l-3.55-2.781L29.413,55.012z M29.847,55.291l3.693,2.383
	l-2.417-0.756L29.847,55.291z M36.622,57.413l2.87,1.5l-4.989-0.983L36.622,57.413z M40.067,56.842l3.212,1.672l-3.147,0.5
	L40.067,56.842z M48.596,56.764l-1.301,1.127l-2.936,0.455L48.596,56.764z M51.005,55.078l0.108,0.699l-1.686,0.521L51.005,55.078z
	 M55.38,50.563l-1.729,3.086l-2.207,1.015L55.38,50.563z M55.863,50.048l1.162-2.146l-1.241,2.943L55.863,50.048z M58.318,43.438
	l0.438-0.605l-0.699,2.318L58.318,43.438z M58.74,38.866l-0.006-0.045l0.043-0.574l0.045,1.487L58.74,38.866z M58.623,38.021
	l-0.438-3.178l0.543,1.8L58.623,38.021z M57.322,33.065l-0.799-1.815l1.119,2.115L57.322,33.065z M54.909,29.317l-1.601-2.371
	l2.041,2.15L54.909,29.317z M49.566,24.2l0.107-0.077L50.9,25L49.566,24.2z M49.404,24.107l-0.83-0.429l0.924,0.363L49.404,24.107z
	 M42.389,22.29l1.559-0.32l2.344,0.834L42.389,22.29z M41.881,22.222L39.76,21.7l3.557,0.227L41.881,22.222z M37.863,22.261
	l-1.654-0.149l2.315-0.418L37.863,22.261z M32.026,23.739l0.946-0.709l1.526-0.47L32.026,23.739z M31.249,24.109l-0.821,0.408
	l1.262-0.738L31.249,24.109z M27.805,26.471l-0.974,0.93l1.113-1.242L27.805,26.471z M23.243,33.034l-0.433,0.16l1.683-2.733
	L23.243,33.034z M22.679,33.423l0.467-0.173l-1.181,2.683L22.679,33.423z M21.516,40.386l0.024,1.493l-0.086,0.271L21.516,40.386z
	 M21.597,42.262l0.426,2.744l-0.587-2.24L21.597,42.262z M23.82,47.939l0.547,2.449l-1.747-3.437L23.82,47.939z M25.575,51.439
	l0.38,1.277l-1.131-1.525L25.575,51.439z M34.059,58.016l0.158,0.254l-1.66-0.723L34.059,58.016z M34.485,58.376l-0.2-0.31
	l3.611,0.711L34.485,58.376z M43.331,58.676l-0.38,0.43l-1.982-0.055L43.331,58.676z M43.594,58.635l2.363-0.367l-2.714,0.764
	L43.594,58.635z M49.055,56.594l1.385-0.428L48,57.514L49.055,56.594z M51.273,55.675l-0.108-0.7l2.024-0.931L51.273,55.675z
	 M55.66,50.417l-0.096,0.944l-1.332,1.59L55.66,50.417z M57.854,46.387l0.342-0.164L56.628,49.3L57.854,46.387z M58.309,45.979
	l-0.385,0.187l0.771-2.54L58.309,45.979z"/>
<radialGradient id="SVGID_2_" cx="-62.5195" cy="258.7207" r="19.2332" gradientTransform="matrix(1 0 0 -1 102.3999 300.0996)" gradientUnits="userSpaceOnUse">
	<stop  offset="0.915" style="stop-color:#7542E5;stop-opacity:0"/>
	<stop  offset="0.929" style="stop-color:#6A51E7;stop-opacity:0.037"/>
	<stop  offset="0.953" style="stop-color:#4C78EE;stop-opacity:0.139"/>
	<stop  offset="0.984" style="stop-color:#1DB7F9;stop-opacity:0.302"/>
	<stop  offset="1" style="stop-color:#00DDFF;stop-opacity:0.4"/>
</radialGradient>
<path fill="url(#SVGID_2_)" d="M59.074,42.381v-0.008L58.9,36.639v-0.02l-0.862-2.861v-0.006l-2.466-4.654l-2.842-3.004h-0.006
	l-2.994-2.137h-0.013l-2.6-1.02H47.1l-3.119-1.11h-0.021L38.822,21.5H38.8l-3.24,0.585h-0.012l-2.641,0.812H32.89l-4.69,2.728
	l-2.93,3.269l-2.7,4.389v0.011l-1.064,3.736v0.014l-0.2,5.669v0.027l1.013,3.861v0.014l2.235,4.4v0.006L26.1,53.2v0.005l2.18,2
	h0.006l2.723,1.842h0.006l3.358,1.46h0.021l5.619,0.659h0.008l2.934,0.082h0.023l4.342-1.225h0.015l3.88-2.129l0.008-0.006h0.004
	l2.5-2.13l1.937-2.312l0.007-0.01l2.738-5.359v-0.021l0.6-3.664v-0.01L59.074,42.381z M28.407,55.087l-0.565-0.519l1.27,0.996
	L28.407,55.087z M36.649,57.24l-1.985-0.928l4.7,0.422L36.649,57.24z M37.372,40.34l-5.21,0.549l3.213-5.401L37.372,40.34z
	 M35.554,35.477l6.366,3.189L37.541,40.3L35.554,35.477z M37.42,40.505l0.606,4.8l-5.8-4.257L37.42,40.505z M37.95,45.463
	l-6.3,1.982l0.423-6.301L37.95,45.463z M37.6,40.585l4.88,3.241l-4.275,1.552L37.6,40.585z M37.678,40.433l4.38-1.638l0.506,4.885
	L37.678,40.433z M44.407,34.792l4.059-1.916l-0.458,4.559L44.407,34.792z M47.869,37.543l-5.58,1.02l1.982-3.663L47.869,37.543z
	 M42.13,38.5l-3.63-6.675l5.631,2.986L42.13,38.5z M41.93,38.481l-6.408-3.21l2.754-3.5L41.93,38.481z M32.035,40.773l-0.817-3.119
	l3.943-2.134L32.035,40.773z M31.495,47.291l-3.116-5.111l3.53-1.072L31.495,47.291z M37.854,45.672l-3.168,3.385l-2.9-1.475
	L37.854,45.672z M42.545,43.984l-1.13,4.07L38.3,45.523L42.545,43.984z M42.238,38.869l4.711,3.715l-4.2,1.157L42.238,38.869z
	 M42.333,38.727l5.642-1.03l-0.9,4.772L42.333,38.727z M48.178,37.472l0.452-4.509l2.606,3.54L48.178,37.472z M51.293,36.662
	l0.145,5.163l-3.217-4.189L51.293,36.662z M44.334,34.641l0.107-3.832l3.932,1.925L44.334,34.641z M44.164,34.641l-5.61-2.976
	l5.719-0.888L44.164,34.641z M35.428,35.118l-1.051-3.826l3.751,0.4L35.428,35.118z M35.291,35.261l-3.981,2.151l2.928-5.981
	L35.291,35.261z M31.9,40.934l-3.455,1.049l2.641-4.161L31.9,40.934z M31.275,47.256L26.959,44.2l1.287-1.911L31.275,47.256z
	 M31.623,47.689l2.9,1.475l-3.566,1.97L31.623,47.689z M38.144,45.609l3.114,2.537l-6.328,0.899L38.144,45.609z M42.714,44.01
	l4.601,4.444l-5.739-0.329L42.714,44.01z M42.836,43.893l4.219-1.16l0.379,5.605L42.836,43.893z M48.128,37.792l3.243,4.226
	l-4.135,0.5L48.128,37.792z M51.463,36.692l2.737,1.551L51.6,41.832L51.463,36.692z M51.492,36.514l1.699-2.791l1.009,4.324
	L51.492,36.514z M51.367,36.392l-2.608-3.542l4.327,0.715L51.367,36.392z M44.51,30.65l3.063-2.773l0.88,4.705L44.51,30.65z
	 M38.448,31.504l1.944-3.449l3.745,2.566L38.448,31.504z M34.39,31.12l2.2-4.48l1.574,4.88L34.39,31.12z M31.11,37.435l-2.67-4.458
	l5.659-1.65L31.11,37.435z M28.284,41.918l-1.292-5.195l3.99,0.945L28.284,41.918z M26.861,44.04l-1.184-2.94l2.445,1.07
	L26.861,44.04z M31.466,47.6L30.8,51.053l-3.7-6.543L31.466,47.6z M34.651,49.285l1.013,3.422l-4.612-1.434L34.651,49.285z
	 M41.352,48.303l-1.005,4.447l-5.409-3.538L41.352,48.303z M47.325,48.623l-2.601,2.355L41.7,48.3L47.325,48.623z M47.23,42.842
	l4,4.047l-3.627,1.537L47.23,42.842z M47.313,42.684l4.127-0.5l-0.14,4.535L47.313,42.684z M54.293,38.405l1.648,5.551l-4.284-1.906
	L54.293,38.405z M53.357,33.713l2.689,2.039l-1.681,2.266L53.357,33.713z M48.73,32.676l2.5-2.859l1.842,3.576L48.73,32.676z
	 M48.617,32.547l-0.873-4.673l3.365,1.817L48.617,32.547z M44.352,30.567l-3.728-2.554l6.776-0.206L44.352,30.567z M38.309,31.407
	l-1.563-4.846l3.495,1.417L38.309,31.407z M34.245,31.029l-1.809-2.454l3.987-1.975L34.245,31.029z M34.12,31.145l-5.544,1.616
	l3.724-4.083L34.12,31.145z M30.941,37.484l-3.95-0.936l1.336-3.429L30.941,37.484z M28.125,41.984l-2.5-1.096l1.243-3.967
	L28.125,41.984z M26.731,44.171l-2.151,0.787l0.959-3.75L26.731,44.171z M30.6,51.049l-4.732-2.933l1-3.675L30.6,51.049z
	 M35.419,52.809l-4.477,0.711l-0.019-2.108L35.419,52.809z M34.849,49.357l5.264,3.442l-4.259-0.048L34.849,49.357z M41.512,48.357
	l3.055,2.707l-4.045,1.68L41.512,48.357z M47.5,48.7l1.615,4.476l-4.236-2.1L47.5,48.7z M47.645,48.6l3.6-1.527l-1.986,6.015
	L47.645,48.6z M51.613,42.216l4.283,1.906l-4.418,2.646L51.613,42.216z M54.48,38.43l2.801,1.993l-1.2,3.413L54.48,38.43z
	 M54.45,38.199l1.683-2.268l1.109,4.256L54.45,38.199z M53.326,33.475L54.1,31.05l1.861,4.428L53.326,33.475z M53.209,33.286
	l-1.786-3.456l2.563,1.025L53.209,33.286z M47.932,27.786l3.729-0.244l-0.47,2L47.932,27.786z M40.549,27.851l2.625-3.257
	l4.208,3.049L40.549,27.851z M40.394,27.773l-1.352-3.541l3.95,0.318L40.394,27.773z M40.218,27.789l-3.453-1.4l2.117-2.1
	L40.218,27.789z M32.46,28.382l1.485-4.284l2.521,2.3L32.46,28.382z M28.477,32.629l1.087-4.451l2.581,0.429L28.477,32.629z
	 M26.863,36.429l-1.394-2.189l2.694-1.15L26.863,36.429z M26.789,36.629l-1.192,3.8l-0.16-5.926L26.789,36.629z M25.416,41.029
	l-0.972,3.8l-1.525-3.8H25.416z M22.88,40.863l0.081-3.729l2.409,3.725L22.88,40.863z M26.722,44.363L25.751,47.9l-1.18-2.758
	L26.722,44.363z M30.598,51.251l-2.933,0.415l-1.676-3.271L30.598,51.251z M30.758,51.398l0.019,2.078l-2.9-1.668L30.758,51.398z
	 M35.649,52.951l-1.489,3.102l-3.094-2.382L35.649,52.951z M35.823,52.982l3.918,3.617l-5.421-0.488L35.823,52.982z M36.015,52.93
	l4.3,0.049l-0.392,3.557L36.015,52.93z M44.65,51.229l0.164,4.019L40.6,52.9L44.65,51.229z M44.82,51.244l4.25,2.109l-4.086,1.91
	L44.82,51.244z M51.413,47.126l2.11,3.3l-4.101,2.725L51.413,47.126z M51.561,47.04l4.062,0.601l-1.983,2.649L51.561,47.04z
	 M51.635,46.88l4.346-2.601l-0.282,3.201L51.635,46.88z M57.375,40.68l0.768,2.686l-1.926,0.621L57.375,40.68z M56.35,36.1
	l2.199,2.772l-1.13,1.334L56.35,36.1z M54.289,31.051l2.859,2.094l-0.983,2.367L54.289,31.051z M51.343,29.612l0.462-1.965
	l2.057,2.972L51.343,29.612z M47.7,27.626l-0.5-3l4.3,2.754L47.7,27.626z M47.512,27.526l-4.101-2.969l3.601-0.023L47.512,27.526z
	 M39.176,24.068l2.676-1.642L43,24.376L39.176,24.068z M36.607,26.3l-2.477-2.26l4.581,0.172L36.607,26.3z M32.25,28.449
	l-2.572-0.428l4.031-3.78L32.25,28.449z M28.26,32.776l-2.632-2.137l3.735-2.378L28.26,32.776z M28.148,32.904l-2.719,1.16
	l0.132-3.261L28.148,32.904z M25.428,40.637l-2.443-3.78l2.274-2.452L25.428,40.637z M24.369,45.1l-0.463,2.313l-0.915-5.741
	L24.369,45.1z M24.487,45.376l1.145,2.673L24,47.82L24.487,45.376z M27.457,51.635L25.731,51.3l0.11-2.821L27.457,51.635z
	 M30.718,53.635l-1.226,1.18l-1.647-2.832L30.718,53.635z M30.864,53.729L33.809,56l-4.169-1.09L30.864,53.729z M40.472,53.023
	l4.2,2.332l-4.6,1.234L40.472,53.023z M49.165,53.482l-0.229,2.933l-3.791-1.054L49.165,53.482z M53.383,50.707L51.049,54.8
	L49.4,53.354L53.383,50.707z M55.684,47.816l0.012,2.141l-1.867,0.357L55.684,47.816z M56.15,44.172l1.9-0.613L55.887,47.2
	L56.15,44.172z M57.468,40.408l1.078-1.271L58.2,42.95L57.468,40.408z M56.259,35.722l0.968-2.331l1.254,5.129L56.259,35.722z
	 M54.2,30.782l0.68-1.187l2.05,3.186L54.2,30.782z M54.082,30.647l-2.012-2.9l2.691,1.716L54.082,30.647z M47.333,24.508
	l2.036-0.217l2.061,2.841L47.333,24.508z M43.197,24.388l-1.12-1.905l4.584,1.884L43.197,24.388z M38.936,24.014l-0.9-1.582
	l3.538-0.036L38.936,24.014z M38.756,24.041L34.3,23.874l3.551-1.419L38.756,24.041z M29.756,27.717l1.6-3.455l2.314-0.211
	L29.756,27.717z M29.469,27.933l-1.458-1.4l3.078-2.105L29.469,27.933z M29.36,28.063l-3.627,2.309l2.167-3.715L29.36,28.063z
	 M25.26,34.056l-1.82-0.979l1.95-2.211L25.26,34.056z M25.203,34.217L22.991,36.6l0.384-3.365L25.203,34.217z M22.7,40.9
	l-0.935,0.764l1.007-4.055L22.7,40.9z M22.723,41.1l0.954,5.986l-1.955-5.166L22.723,41.1z M25.677,48.229l-0.109,2.813L24.044,48
	L25.677,48.229z M27.554,51.829L29.11,54.5l-3.194-2.984L27.554,51.829z M34.1,56.249l-0.067,1.545l-4.072-2.627L34.1,56.249z
	 M34.267,56.314l2.114,0.988l-2.18,0.533L34.267,56.314z M39.896,56.807l0.066,2.168l-3.071-1.607L39.896,56.807z M44.751,55.507
	l-1.246,2.933l-3.294-1.713L44.751,55.507z M44.951,55.48l3.789,1.053l-5.032,1.877L44.951,55.48z M49.335,53.516l1.604,1.4
	l-1.828,1.424L49.335,53.516z M53.691,50.512l1.85-0.355l-4.057,4.217L53.691,50.512z M55.87,49.693l-0.013-2.088l1.707-1.043
	L55.87,49.693z M56.02,47.309l2.07-3.479l-0.381,2.449L56.02,47.309z M58.662,39.788l0.242,2.56l-0.549,0.758L58.662,39.788z
	 M57.4,33.377l0.473,0.444l0.475,3.43L57.4,33.377z M55,29.465l0.445-0.224l1.287,2.919L55,29.465z M51.883,27.421l0.782-1.119
	l1.914,2.839L51.883,27.421z M51.762,27.299l-2.039-2.812l2.822,1.691L51.762,27.299z M47.17,24.355l-0.013-1.222l1.964,1.014
	L47.17,24.355z M47,24.322l-4.488-1.844l4.475,0.589L47,24.322z M38.121,22.261l0.715-0.613l2.369,0.583L38.121,22.261z
	 M34.221,23.725l1.389-1.5l1.922,0.173L34.221,23.725z M33.862,23.863l-2.1,0.191l3.455-1.646L33.862,23.863z M28.076,26.281
	l0.232-0.521l1.931-0.959L28.076,26.281z M25.541,30.363L25.4,29l2.1-2L25.541,30.363z M25.395,30.603l-1.742,1.975l1.605-3.3
	L25.395,30.603z M22.8,36.775l-1.112,0.207l1.469-3.335L22.8,36.775z M22.763,36.955L21.7,41.24l-0.068-4.075L22.763,36.955z
	 M23.7,47.624l-1.264-1.04l-0.606-3.9L23.7,47.624z M25.472,51.225l-0.807-0.266l-0.54-2.419L25.472,51.225z M28.923,54.553
	L26.245,53.1l-0.431-1.447L28.923,54.553z M29.413,55.012l1.161,1.48l-3.55-2.781L29.413,55.012z M29.847,55.291l3.693,2.383
	l-2.417-0.756L29.847,55.291z M36.622,57.413l2.87,1.5l-4.989-0.983L36.622,57.413z M40.067,56.842l3.212,1.672l-3.147,0.5
	L40.067,56.842z M48.596,56.764l-1.301,1.127l-2.936,0.455L48.596,56.764z M51.005,55.078l0.108,0.699l-1.686,0.521L51.005,55.078z
	 M55.38,50.563l-1.729,3.086l-2.207,1.015L55.38,50.563z M55.863,50.048l1.162-2.146l-1.241,2.943L55.863,50.048z M58.318,43.438
	l0.438-0.605l-0.699,2.318L58.318,43.438z M58.74,38.866l-0.006-0.045l0.043-0.574l0.045,1.487L58.74,38.866z M58.623,38.021
	l-0.438-3.178l0.543,1.8L58.623,38.021z M57.322,33.065l-0.799-1.815l1.119,2.115L57.322,33.065z M54.909,29.317l-1.601-2.371
	l2.041,2.15L54.909,29.317z M49.566,24.2l0.107-0.077L50.9,25L49.566,24.2z M49.404,24.107l-0.83-0.429l0.924,0.363L49.404,24.107z
	 M42.389,22.29l1.559-0.32l2.344,0.834L42.389,22.29z M41.881,22.222L39.76,21.7l3.557,0.227L41.881,22.222z M37.863,22.261
	l-1.654-0.149l2.315-0.418L37.863,22.261z M32.026,23.739l0.946-0.709l1.526-0.47L32.026,23.739z M31.249,24.109l-0.821,0.408
	l1.262-0.738L31.249,24.109z M27.805,26.471l-0.974,0.93l1.113-1.242L27.805,26.471z M23.243,33.034l-0.433,0.16l1.683-2.733
	L23.243,33.034z M22.679,33.423l0.467-0.173l-1.181,2.683L22.679,33.423z M21.516,40.386l0.024,1.493l-0.086,0.271L21.516,40.386z
	 M21.597,42.262l0.426,2.744l-0.587-2.24L21.597,42.262z M23.82,47.939l0.547,2.449l-1.747-3.437L23.82,47.939z M25.575,51.439
	l0.38,1.277l-1.131-1.525L25.575,51.439z M34.059,58.016l0.158,0.254l-1.66-0.723L34.059,58.016z M34.485,58.376l-0.2-0.31
	l3.611,0.711L34.485,58.376z M43.331,58.676l-0.38,0.43l-1.982-0.055L43.331,58.676z M43.594,58.635l2.363-0.367l-2.714,0.764
	L43.594,58.635z M49.055,56.594l1.385-0.428L48,57.514L49.055,56.594z M51.273,55.675l-0.108-0.7l2.024-0.931L51.273,55.675z
	 M55.66,50.417l-0.096,0.944l-1.332,1.59L55.66,50.417z M57.854,46.387l0.342-0.164L56.628,49.3L57.854,46.387z M58.309,45.979
	l-0.385,0.187l0.771-2.54L58.309,45.979z"/>
<radialGradient id="SVGID_3_" cx="-35.3838" cy="291.2188" r="80.795" gradientTransform="matrix(1 0 0 -1 103.1519 300.0996)" gradientUnits="userSpaceOnUse">
	<stop  offset="0" style="stop-color:#80EBFF"/>
	<stop  offset="0.082" style="stop-color:#4DE5FF"/>
	<stop  offset="0.161" style="stop-color:#23E1FF"/>
	<stop  offset="0.222" style="stop-color:#09DEFF"/>
	<stop  offset="0.259" style="stop-color:#00DDFF"/>
	<stop  offset="0.26" style="stop-color:#00DCFF"/>
	<stop  offset="0.38" style="stop-color:#00B3F5"/>
	<stop  offset="0.473" style="stop-color:#0099EF"/>
	<stop  offset="0.53" style="stop-color:#0090ED"/>
	<stop  offset="0.86" style="stop-color:#0060DF"/>
</radialGradient>
<path fill="url(#SVGID_3_)" d="M75.959,26.832c-1.686-4.052-5.1-8.427-7.784-9.809c1.909,3.694,3.233,7.663,3.925,11.763
	c0-0.009,0,0.008,0.006,0.037l0.008,0.041c2.991,8.548,2.559,17.921-1.209,26.158c-4.445,9.531-15.211,19.299-32.06,18.824
	C20.642,73.331,4.605,59.837,1.611,42.164c-0.545-2.787,0-4.2,0.274-6.465c-0.375,1.759-0.585,3.549-0.628,5.347v0.2
	c0.05,21.434,17.465,38.768,38.897,38.719C58.99,79.921,75.076,66.357,78.3,47.8c0.065-0.5,0.118-0.995,0.177-1.495
	C79.276,39.706,78.411,33.011,75.959,26.832L75.959,26.832z"/>
<radialGradient id="SVGID_4_" cx="-64.9067" cy="258.1875" r="80.795" gradientTransform="matrix(1 0 0 -1 103.1519 300.0996)" gradientUnits="userSpaceOnUse">
	<stop  offset="0.3" style="stop-color:#321C64;stop-opacity:0.8"/>
	<stop  offset="0.371" style="stop-color:#212F83;stop-opacity:0.511"/>
	<stop  offset="0.475" style="stop-color:#0A47AC;stop-opacity:0.141"/>
	<stop  offset="0.53" style="stop-color:#0250BB;stop-opacity:0"/>
</radialGradient>
<path fill="url(#SVGID_4_)" d="M75.959,26.832c-1.686-4.052-5.1-8.427-7.784-9.809c1.909,3.694,3.233,7.663,3.925,11.763
	c0-0.009,0,0.008,0.006,0.037l0.008,0.041c2.991,8.548,2.559,17.921-1.209,26.158c-4.445,9.531-15.211,19.299-32.06,18.824
	C20.642,73.331,4.605,59.837,1.611,42.164c-0.545-2.787,0-4.2,0.274-6.465c-0.375,1.759-0.585,3.549-0.628,5.347v0.2
	c0.05,21.434,17.465,38.768,38.897,38.719C58.99,79.921,75.076,66.357,78.3,47.8c0.065-0.5,0.118-0.995,0.177-1.495
	C79.276,39.706,78.411,33.011,75.959,26.832L75.959,26.832z"/>
<radialGradient id="SVGID_5_" cx="-44.1733" cy="312.0791" r="118.08" gradientTransform="matrix(1 0 0 -1 103.1519 300.0996)" gradientUnits="userSpaceOnUse">
	<stop  offset="0" style="stop-color:#80EBFF"/>
	<stop  offset="0.008" style="stop-color:#76E7FE"/>
	<stop  offset="0.035" style="stop-color:#57D9FB"/>
	<stop  offset="0.067" style="stop-color:#3BCDF9"/>
	<stop  offset="0.103" style="stop-color:#25C3F7"/>
	<stop  offset="0.144" style="stop-color:#14BCF6"/>
	<stop  offset="0.196" style="stop-color:#09B7F5"/>
	<stop  offset="0.268" style="stop-color:#02B4F4"/>
	<stop  offset="0.469" style="stop-color:#00B3F4"/>
	<stop  offset="0.687" style="stop-color:#0080E7"/>
	<stop  offset="0.844" style="stop-color:#0060DF"/>
	<stop  offset="0.995" style="stop-color:#592ACB"/>
</radialGradient>
<path fill="url(#SVGID_5_)" d="M1.611,42.164c2.994,17.673,19.031,31.167,37.237,31.682c16.849,0.477,27.615-9.293,32.061-18.824
	c3.767-8.236,4.199-17.61,1.208-26.158v-0.037c0-0.029-0.006-0.046-0.006-0.037l0.008,0.065c1.376,8.977-3.195,17.674-10.342,23.555
	l-0.021,0.05C47.824,63.781,34.5,59.289,31.8,57.451c-0.189-0.092-0.377-0.186-0.565-0.282c-8.118-3.875-11.472-11.265-10.753-17.6
	c-3.936,0.06-7.538-2.204-9.192-5.776c4.334-2.651,9.733-2.867,14.266-0.571c4.595,2.084,9.823,2.289,14.568,0.572
	c-0.014-0.315-6.767-3-9.4-5.59c-1.407-1.385-2.075-2.052-2.666-2.553c-0.32-0.27-0.653-0.523-1-0.758
	c-0.231-0.157-0.49-0.327-0.8-0.531c-2.83-1.838-8.458-1.736-8.644-1.732h-0.018c-1.539-1.947-1.43-8.367-1.342-9.707
	c-0.456,0.182-0.892,0.412-1.3,0.686c-1.357,0.968-2.626,2.054-3.792,3.245c-1.328,1.345-2.541,2.799-3.627,4.346v0.006V21.2
	c-2.495,3.53-4.265,7.52-5.207,11.738C2.31,33.022,0.932,39.042,1.611,42.164z"/>
<linearGradient id="SVGID_6_" gradientUnits="userSpaceOnUse" x1="-51.7744" y1="305.4434" x2="-30.1012" y2="240.2148" gradientTransform="matrix(1 0 0 -1 102.3999 300.0996)">
	<stop  offset="0" style="stop-color:#AAF2FF"/>
	<stop  offset="0.035" style="stop-color:#9EF1FF"/>
	<stop  offset="0.098" style="stop-color:#7EEDFF"/>
	<stop  offset="0.183" style="stop-color:#4BE6FF"/>
	<stop  offset="0.284" style="stop-color:#04DEFF"/>
	<stop  offset="0.29" style="stop-color:#00DDFF"/>
	<stop  offset="0.609" style="stop-color:#0090ED"/>
	<stop  offset="0.894" style="stop-color:#0250BB"/>
</linearGradient>
<path fill="url(#SVGID_6_)" d="M53.742,26.87c1.415,1.389,2.627,2.972,3.6,4.7c0.202,0.149,0.396,0.309,0.583,0.476
	c8.8,8.1,4.187,19.55,3.845,20.365c7.146-5.882,11.717-14.578,10.34-23.555C67.723,17.931,60.283,13.526,54.21,3.935
	c-0.313-0.489-0.618-0.984-0.914-1.485c-0.152-0.261-0.295-0.527-0.427-0.8c-0.253-0.488-0.447-1.005-0.58-1.539
	c0-0.051-0.037-0.094-0.088-0.1c-0.023-0.007-0.049-0.007-0.073,0l-0.019,0.01L52.08,0.033C50.58,0.748,41.682,14.823,53.742,26.87
	L53.742,26.87z"/>
<linearGradient id="SVGID_7_" gradientUnits="userSpaceOnUse" x1="-60.5889" y1="300.1748" x2="-47.6099" y2="261.1128" gradientTransform="matrix(1 0 0 -1 102.3999 300.0996)">
	<stop  offset="0" style="stop-color:#AAF2FF"/>
	<stop  offset="0.035" style="stop-color:#9EF1FF"/>
	<stop  offset="0.098" style="stop-color:#7EEDFF"/>
	<stop  offset="0.183" style="stop-color:#4BE6FF"/>
	<stop  offset="0.284" style="stop-color:#04DEFF"/>
	<stop  offset="0.29" style="stop-color:#00DDFF"/>
	<stop  offset="0.74" style="stop-color:#0090ED"/>
	<stop  offset="1" style="stop-color:#0250BB"/>
</linearGradient>
<path fill="url(#SVGID_7_)" d="M38.816,21.556l5.137,0.327l3.119,1.11l2.601,1.02l2.995,2.139l2.82,2.974l0.98,1.849
	c0.214,0.134,0.426,0.272,0.635,0.413c0.084,0.059,0.162,0.118,0.24,0.177c-0.973-1.727-2.186-3.307-3.6-4.695
	C41.682,14.823,50.58,0.748,52.08,0.033l0.02-0.021c-9.746,5.7-13.054,16.251-13.356,21.529v0.03L38.816,21.556z"/>
<radialGradient id="SVGID_8_" cx="-65.9263" cy="294.5264" r="27.678" gradientTransform="matrix(1 0 0 -1 103.1519 300.0996)" gradientUnits="userSpaceOnUse">
	<stop  offset="0" style="stop-color:#00DDFF"/>
	<stop  offset="0.156" style="stop-color:#00D6FD"/>
	<stop  offset="0.382" style="stop-color:#00C3F9"/>
	<stop  offset="0.648" style="stop-color:#00A4F2"/>
	<stop  offset="0.792" style="stop-color:#0090ED"/>
</radialGradient>
<path fill="url(#SVGID_8_)" d="M26.25,24.362c0.271,0.171,0.537,0.349,0.8,0.531c-0.885-3.091-0.922-6.362-0.109-9.472
	c-3.578,1.731-6.759,4.186-9.34,7.209C17.792,22.626,23.42,22.524,26.25,24.362z"/>
<radialGradient id="SVGID_9_" cx="-47.1201" cy="279.959" r="80.6816" gradientTransform="matrix(1 0 0 -1 103.1519 300.0996)" gradientUnits="userSpaceOnUse">
	<stop  offset="0.286" style="stop-color:#80EBFF"/>
	<stop  offset="1" style="stop-color:#00B3F4"/>
</radialGradient>
<path fill="url(#SVGID_9_)" d="M22.635,44.75c0,0,1.791-6.667,12.825-6.667c1.193,0,4.6-3.325,4.666-4.289
	c-4.745,1.717-9.973,1.512-14.568-0.572c-4.533-2.296-9.932-2.081-14.266,0.571c1.654,3.572,5.256,5.835,9.192,5.776
	c-0.719,6.335,2.635,13.725,10.753,17.6c0.182,0.087,0.352,0.183,0.538,0.265C27.037,54.986,23.124,50.363,22.635,44.75z"/>
<radialGradient id="SVGID_10_" cx="-66.5791" cy="284.2744" r="73.7169" gradientTransform="matrix(1 0 0 -1 103.1519 300.0996)" gradientUnits="userSpaceOnUse">
	<stop  offset="0.181" style="stop-color:#AAF2FF"/>
	<stop  offset="0.427" style="stop-color:#00DDFF"/>
	<stop  offset="0.448" style="stop-color:#00D2FC"/>
	<stop  offset="0.613" style="stop-color:#0080E7"/>
	<stop  offset="0.689" style="stop-color:#0060DF"/>
</radialGradient>
<path fill="url(#SVGID_10_)" d="M57.928,32.041c-0.188-0.168-0.382-0.327-0.584-0.476c-0.078-0.059-0.156-0.118-0.24-0.177
	c-2.73-1.889-6.064-2.697-9.356-2.269c13.957,6.97,10.21,30.971-9.129,30.064c-1.722-0.07-3.424-0.398-5.049-0.973
	c-0.384-0.145-0.764-0.3-1.14-0.465c-0.218-0.1-0.437-0.2-0.654-0.313l0.027,0.018c2.7,1.838,16.022,6.33,29.947-4.995l0.022-0.05
	C62.113,51.59,66.723,40.138,57.928,32.041z"/>
<linearGradient id="SVGID_11_" gradientUnits="userSpaceOnUse" x1="-32.3833" y1="288.0498" x2="-87.1503" y2="233.2818" gradientTransform="matrix(1 0 0 -1 102.3999 300.0996)">
	<stop  offset="0.239" style="stop-color:#80EBFF;stop-opacity:0.5"/>
	<stop  offset="0.261" style="stop-color:#76EAFF;stop-opacity:0.459"/>
	<stop  offset="0.359" style="stop-color:#4CE5FF;stop-opacity:0.295"/>
	<stop  offset="0.455" style="stop-color:#2BE2FF;stop-opacity:0.167"/>
	<stop  offset="0.546" style="stop-color:#13DFFF;stop-opacity:0.075"/>
	<stop  offset="0.631" style="stop-color:#05DEFF;stop-opacity:0.019"/>
	<stop  offset="0.704" style="stop-color:#00DDFF;stop-opacity:0"/>
</linearGradient>
<path fill="url(#SVGID_11_)" d="M75.956,26.831c-1.687-4.053-5.101-8.427-7.784-9.81c1.91,3.694,3.235,7.663,3.928,11.764
	l0.008,0.064C67.721,17.925,60.281,13.52,54.206,3.928c-0.313-0.489-0.619-0.984-0.914-1.484c-0.151-0.261-0.295-0.528-0.429-0.8
	c-0.251-0.487-0.445-1.003-0.577-1.535c0-0.051-0.038-0.094-0.089-0.1c-0.023-0.007-0.049-0.007-0.072,0
	c-0.006,0-0.014,0.009-0.02,0.011s-0.02,0.011-0.028,0.015l0.016-0.022c-9.747,5.7-13.052,16.283-13.356,21.561l0.079-0.014
	l5.137,0.327l2.891,1.028l2.829,1.1l2.995,2.139l2.818,2.972c0,0,0.97,1.82,0.982,1.851c-2.607-1.607-5.689-2.263-8.725-1.858
	c13.956,6.97,10.21,30.971-9.129,30.064c-1.722-0.07-3.424-0.397-5.049-0.972c-0.377-0.142-0.757-0.298-1.14-0.468
	c-0.22-0.099-0.438-0.203-0.654-0.313l0.027,0.018c-0.189-0.092-0.378-0.186-0.565-0.281c0.181,0.086,0.352,0.182,0.538,0.264
	c-4.738-2.445-8.651-7.07-9.14-12.684c0,0,1.791-6.667,12.825-6.667c1.193,0,4.6-3.325,4.666-4.289c-0.014-0.315-6.768-3-9.4-5.59
	c-1.407-1.384-2.075-2.052-2.667-2.553c-0.321-0.271-0.656-0.523-1.005-0.757c-0.884-3.091-0.922-6.363-0.109-9.473
	c-3.578,1.732-6.759,4.187-9.34,7.21h-0.018c-1.538-1.946-1.429-8.366-1.342-9.707c-0.456,0.183-0.892,0.413-1.3,0.686
	c-1.357,0.968-2.626,2.054-3.792,3.246c-1.327,1.343-2.539,2.795-3.624,4.34c-2.493,3.532-4.26,7.523-5.201,11.743
	c-0.019,0.084-0.034,0.171-0.052,0.255c-0.073,0.342-0.4,2.073-0.448,2.445c0,0.028,0-0.029,0,0
	c-0.299,1.789-0.491,3.595-0.572,5.408v0.2c0.03,21.433,17.429,38.782,38.861,38.753C58.977,79.971,75.088,66.387,78.3,47.8
	c0.066-0.5,0.119-1,0.177-1.5C79.275,39.702,78.408,33.008,75.956,26.831L75.956,26.831z M72.107,28.821l0.006,0.042L72.107,28.821z
	"/>
<linearGradient id="SVGID_12_" gradientUnits="userSpaceOnUse" x1="-69.1724" y1="269.2793" x2="-76.498" y2="239.2578" gradientTransform="matrix(1 0 0 -1 102.3999 300.0996)">
	<stop  offset="0" style="stop-color:#BFF3FF;stop-opacity:0.9"/>
	<stop  offset="1" style="stop-color:#80EBFF;stop-opacity:0.5"/>
</linearGradient>
<path fill="url(#SVGID_12_)" d="M40.126,33.794c0,0-0.164,0.068-0.468,0.172c-0.758,1.281-3.453,3.727-4.483,3.722
	c-11.034-0.048-12.854,6.546-12.854,6.546c0.202,2.254,0.943,4.426,2.162,6.332c-1.03-1.781-1.661-3.766-1.848-5.816
	c0,0,1.791-6.667,12.825-6.667C36.653,38.083,40.06,34.758,40.126,33.794z"/>
<linearGradient id="SVGID_13_" gradientUnits="userSpaceOnUse" x1="-40.2061" y1="301.1289" x2="-44.7401" y2="210.7739" gradientTransform="matrix(1 0 0 -1 102.3999 300.0996)">
	<stop  offset="0" style="stop-color:#BFF3FF"/>
	<stop  offset="1" style="stop-color:#00DDFF;stop-opacity:0"/>
</linearGradient>
<path fill="url(#SVGID_13_)" d="M72.117,28.864v-0.037c0-0.029-0.006-0.046,0-0.037c0.006,0.009,0,0.022,0.007,0.065
	c-0.261-0.647-0.538-1.288-0.834-1.92c-0.101-0.212-0.2-0.41-0.306-0.617c-0.194-0.4-0.387-0.8-0.59-1.176
	c-0.125-0.235-0.256-0.458-0.383-0.686c-0.189-0.335-0.375-0.672-0.568-1c-0.141-0.236-0.287-0.462-0.432-0.692
	c-0.189-0.3-0.377-0.6-0.57-0.892c-0.152-0.231-0.31-0.454-0.465-0.679c-0.192-0.278-0.385-0.556-0.582-0.827
	c-0.162-0.224-0.326-0.443-0.492-0.662c-0.199-0.261-0.393-0.522-0.592-0.778c-0.17-0.218-0.342-0.436-0.516-0.651
	c-0.199-0.249-0.4-0.5-0.605-0.745c-0.176-0.214-0.354-0.427-0.532-0.639c-0.101-0.115-0.193-0.233-0.291-0.348l0.124,0.152
	c-3.374-3.966-7.023-7.621-10.281-12.765c-0.314-0.489-0.619-0.984-0.914-1.485c-0.152-0.261-0.295-0.528-0.427-0.8
	c-0.22-0.437-0.398-0.893-0.534-1.362c-0.007-0.024-0.02-0.063-0.023-0.083c-0.008-0.03-0.015-0.06-0.021-0.09
	c0-0.051-0.037-0.094-0.088-0.1c-0.023-0.007-0.049-0.007-0.073,0l-0.019,0.011C52.1,0.025,52.09,0.03,52.08,0.036
	c-0.086,0.047-0.164,0.105-0.234,0.173c-0.02,0.016-0.039,0.033-0.057,0.05c-0.109,0.102-0.211,0.21-0.307,0.325l-0.012,0.011
	c-2.32,2.728-8.258,14.604,1.309,25.259c-8.957-10.54-3.312-21.93-0.858-24.914c0.131,0.402,0.291,0.794,0.479,1.172
	c0.131,0.272,0.273,0.539,0.427,0.8c0.3,0.513,0.606,1,0.914,1.484c6.075,9.592,13.516,14,17.899,24.921
	c0-0.042-0.007-0.058-0.007-0.064c0-0.006,0,0.008,0.005,0.037l0.006,0.037c2.994,8.549,2.563,17.925-1.203,26.163
	c-1.543,3.271-3.627,6.26-6.164,8.838c2.748-2.682,4.993-5.834,6.632-9.307C74.675,46.785,75.107,37.412,72.117,28.864
	L72.117,28.864z"/>
<linearGradient id="SVGID_14_" gradientUnits="userSpaceOnUse" x1="-56.3501" y1="300.8848" x2="-57.8071" y2="271.8528" gradientTransform="matrix(1 0 0 -1 102.3999 300.0996)">
	<stop  offset="0" style="stop-color:#BFF3FF"/>
	<stop  offset="1" style="stop-color:#AAF2FF;stop-opacity:0.5"/>
</linearGradient>
<path fill="url(#SVGID_14_)" d="M52.08,0.033l0.02-0.021C43.32,5.148,39.766,14.217,38.926,19.823
	c1.406-7.324,5.61-13.813,11.721-18.088C51.002,1.075,51.49,0.496,52.08,0.033z"/>
<linearGradient id="SVGID_15_" gradientUnits="userSpaceOnUse" x1="-49.9351" y1="271.7363" x2="-52.1241" y2="228.1119" gradientTransform="matrix(1 0 0 -1 102.3999 300.0996)">
	<stop  offset="0" style="stop-color:#BFF3FF"/>
	<stop  offset="1" style="stop-color:#00DDFF;stop-opacity:0"/>
</linearGradient>
<path fill="url(#SVGID_15_)" d="M61.749,52.456l0.022-0.05c0.342-0.816,4.951-12.268-3.844-20.365
	c-0.188-0.168-0.382-0.327-0.584-0.476c-0.078-0.059-0.156-0.118-0.24-0.177c-2.633-1.813-5.82-2.636-9-2.325H48.1
	c-0.117,0.016-0.235,0.034-0.353,0.055C61.546,36.01,58.039,59.55,39.266,59.2l0.153,0.009C58.45,59.957,62.2,36.618,48.977,29.3
	c2.6,0.014,5.143,0.748,7.35,2.122c0.083,0.055,0.166,0.111,0.246,0.169c0.209,0.141,0.408,0.292,0.601,0.452
	c9.106,7.747,4.95,19.37,4.638,20.2l-0.02,0.052"/>
<linearGradient id="SVGID_16_" gradientUnits="userSpaceOnUse" x1="-77.3047" y1="272.625" x2="-74.7756" y2="232.4242" gradientTransform="matrix(1 0 0 -1 102.3999 300.0996)">
	<stop  offset="0" style="stop-color:#BFF3FF;stop-opacity:0.8"/>
	<stop  offset="0.999" style="stop-color:#80EBFF;stop-opacity:0.2"/>
</linearGradient>
<path fill="url(#SVGID_16_)" d="M25.662,33.61c4.469,1.863,9.474,1.986,14.029,0.345c-4.635,1.545-9.683,1.283-14.133-0.733
	c-4.466-2.248-9.768-2.078-14.081,0.45l-0.051,0.033h-0.005l-0.042,0.028l-0.032,0.022l-0.02,0.014h-0.006l-0.014,0.01h-0.005
	l0.018,0.043v0.006l0.022,0.05v0.01l0.033,0.072v0.006c0.08,0.166,0.165,0.328,0.255,0.487c1.782,3.205,5.186,5.166,8.852,5.1
	c-0.7,6.146,2.438,13.282,10.036,17.242c-7.262-4.186-10.313-11.779-9.465-17.821c-5.607-0.148-8.114-3.509-8.831-4.934
	C16.397,31.835,21.355,31.676,25.662,33.61z"/>
<linearGradient id="SVGID_17_" gradientUnits="userSpaceOnUse" x1="-73.3018" y1="286.8945" x2="-82.4116" y2="272.5652" gradientTransform="matrix(1 0 0 -1 102.3999 300.0996)">
	<stop  offset="0" style="stop-color:#BFF3FF;stop-opacity:0.8"/>
	<stop  offset="1" style="stop-color:#80EBFF;stop-opacity:0.2"/>
</linearGradient>
<path fill="url(#SVGID_17_)" d="M27.049,24.872l-0.19-0.111l0.2,0.132L27.049,24.872z M27.009,24.73
	c-0.839-3.043-0.86-6.254-0.063-9.309c-3.42,1.645-6.474,3.961-8.98,6.811c2.377-2.384,5.147-4.341,8.189-5.784
	C25.795,19.238,26.087,22.073,27.009,24.73z"/>
<linearGradient id="SVGID_18_" gradientUnits="userSpaceOnUse" x1="-86.9907" y1="263.1895" x2="-89.7937" y2="207.3215" gradientTransform="matrix(1 0 0 -1 102.3999 300.0996)">
	<stop  offset="0" style="stop-color:#00DDFF;stop-opacity:0.4"/>
	<stop  offset="1" style="stop-color:#00DDFF;stop-opacity:0"/>
</linearGradient>
<path fill="url(#SVGID_18_)" d="M2.547,46.227l-0.031-0.111c-0.375-1.299-0.675-2.618-0.9-3.951c-0.25-1.657-0.25-3.343,0-5
	c-0.195,1.285-0.313,2.581-0.355,3.88v0.2c0.006,16.5,10.455,31.189,26.04,36.607C13.869,72.654,4.366,60.514,2.547,46.227z"/>
<linearGradient id="SVGID_19_" gradientUnits="userSpaceOnUse" x1="-82.3125" y1="294.5723" x2="-81.7965" y2="228.1063" gradientTransform="matrix(1 0 0 -1 102.3999 300.0996)">
	<stop  offset="0" style="stop-color:#BFF3FF"/>
	<stop  offset="1" style="stop-color:#00DDFF;stop-opacity:0"/>
</linearGradient>
<path fill="url(#SVGID_19_)" d="M2.236,42.32c-0.679-3.123,0.7-9.141,0.717-9.226c0.942-4.22,2.712-8.211,5.207-11.742v0.006v-0.006
	c1.085-1.545,2.297-2.997,3.623-4.341c1.166-1.191,2.435-2.277,3.792-3.245c0.054-0.035,0.108-0.068,0.164-0.1
	c-0.014,2.948,0.154,7.923,1.519,9.554h0.018c0.187-0.01,5.835-0.259,8.724,1.5c0.321,0.2,0.585,0.359,0.821,0.51
	c0.356,0.226,0.699,0.469,1.029,0.731c0.606,0.486,1.294,1.135,2.743,2.482c2.1,1.951,6.669,3.891,8.644,4.815
	c-1.924-0.969-6.464-3.04-8.511-5.055c-1.407-1.385-2.075-2.052-2.666-2.553c-0.32-0.27-0.653-0.523-1-0.758
	c-0.231-0.157-0.49-0.327-0.8-0.531c-2.83-1.838-8.458-1.736-8.644-1.732h-0.018c-1.406-1.779-1.436-7.293-1.364-9.252
	c0-0.076,0-0.145,0.008-0.21V13.04c0-0.042,0-0.083,0.007-0.118c0,0-0.007-0.007-0.016-0.007h-0.035l-0.022,0.008l-0.032,0.012
	l-0.031,0.013l-0.037,0.017l-0.04,0.019l-0.04,0.02l-0.049,0.024l-0.039,0.021l-0.058,0.03l-0.033,0.018
	c-0.292,0.159-0.58,0.326-0.864,0.5c-1.357,0.968-2.626,2.054-3.792,3.245C9.833,18.191,8.62,19.649,7.535,21.2v0.006V21.2
	c-2.495,3.53-4.265,7.52-5.207,11.738c-0.018,0.084-1.4,6.1-0.717,9.226C4.159,57.2,16.154,69.215,30.892,72.777
	C16.441,69.031,4.748,57.146,2.236,42.32z"/>
<linearGradient id="SVGID_20_" gradientUnits="userSpaceOnUse" x1="-43.772" y1="285.1074" x2="-48.357" y2="193.7324" gradientTransform="matrix(1 0 0 -1 102.3999 300.0996)">
	<stop  offset="0" style="stop-color:#BFF3FF;stop-opacity:0.8"/>
	<stop  offset="1" style="stop-color:#00DDFF;stop-opacity:0"/>
</linearGradient>
<path fill="url(#SVGID_20_)" d="M75.959,26.832c-1.486-3.576-3.824-6.734-6.811-9.2l-0.068-0.049
	c-0.076-0.053-0.152-0.106-0.23-0.158c-0.028-0.021-0.057-0.039-0.086-0.057c-0.074-0.047-0.146-0.092-0.217-0.135l-0.084-0.05
	c-0.095-0.055-0.191-0.108-0.288-0.159c0.104,0.204,0.206,0.409,0.306,0.615c0.063,0.127,0.125,0.255,0.187,0.383
	c1.651,3.406,2.808,7.031,3.433,10.764l0.008,0.065c1.377,8.977-3.194,17.674-10.34,23.555l-0.022,0.05
	c-8.884,7.226-17.521,8.013-23.312,7.159c5.771,1.078,14.874,0.623,24.25-7l0.021-0.051c7.146-5.881,11.718-14.578,10.342-23.554
	l-0.008-0.065c-0.539-3.255-1.489-6.429-2.829-9.445c1.699,1.8,3.128,3.837,4.243,6.047c2.787,5.927,4.021,12.465,3.586,19
	c-0.03,0.495-0.056,0.989-0.093,1.48c-2.326,18.609-17.682,32.86-36.412,33.793c-2.558,0.144-5.124,0.039-7.661-0.313
	C54.864,82.881,74.666,68.748,78.3,47.8c0.065-0.5,0.118-0.995,0.177-1.495C79.276,39.706,78.411,33.011,75.959,26.832
	L75.959,26.832z M72.117,28.864v-0.037V28.864z"/>
</svg>
